<svg xmlns="http://www.w3.org/2000/svg" id="plantuml" style="background: rgb(255, 255, 255); width: 1552px; height: 843px; overflow: hidden;" preserveAspectRatio="none meet" width="1552px" height="843px" contentStyleType="text/css" zoomAndPan="magnify" version="1.1"><defs><filter id="f1efeutlyjhhba" x="-1" y="-1" width="300%" height="300%"><feGaussianBlur result="blurOut" stdDeviation="2" /><feColorMatrix result="blurOut2" in="blurOut" type="matrix" values="0 0 0 0 0 0 0 0 0 0 0 0 0 0 0 0 0 0 0.4 0" /><feOffset result="blurOut3" in="blurOut2" dx="4" dy="4" /><feBlend in="SourceGraphic" in2="blurOut3" mode="normal" /></filter><style id="svg-pan-zoom-controls-styles" type="text/css">.svg-pan-zoom-control { cursor: pointer; fill: black; fill-opacity: 0.333; } .svg-pan-zoom-control:hover { fill-opacity: 0.8; } .svg-pan-zoom-control-background { fill: white; fill-opacity: 0.5; } .svg-pan-zoom-control-background { fill-opacity: 0.8; }</style></defs><g class="svg-pan-zoom_viewport" style="transform: matrix(0.874259, 0, 0, 0.874259, 271.575, 9.44734e-006);" transform="matrix(0.874259 0 0 0.874259 271.575 9.44734e-006)"><g id="elem_GeographicalLocationNote"><path filter="url(&quot;#f1efeutlyjhhba&quot;)" style="stroke: #454645; stroke-width: 1.5;" fill="#ffffe0" d="M 244 16 L 244 56.2188 A 2.5 2.5 0 0 0 246.5 58.7188 L 671.5 58.7188 A 2.5 2.5 0 0 0 674 56.2188 L 674 23.5 L 664 13.5 L 246.5 13.5 A 2.5 2.5 0 0 0 244 16" /><path style="stroke: #454645; stroke-width: 1;" fill="#ffffe0" d="M 664 13.5 L 664 22.25 A 1.25 1.25 0 0 0 665.25 23.5 L 674 23.5 L 664 13.5" /><text font-family="sans-serif" font-size="14" fill="#000000" lengthAdjust="spacing" textLength="187" x="250" y="33.0332">Profile: GeographicalLocation</text><text font-family="sans-serif" font-size="14" fill="#000000" lengthAdjust="spacing" textLength="409" x="250" y="50.6426">Namespace: http://www.ucaiug.org/gmdm/geographical_location#</text></g><!--class ACLineSegment--><g id="elem_ACLineSegment"><rect id="ACLineSegment" filter="url(&quot;#f1efeutlyjhhba&quot;)" style="stroke: #454645; stroke-width: 1;" fill="#ffffe0" x="7" y="617" width="134" height="50.7031" rx="2.5" ry="2.5" codeline="100" /><ellipse style="stroke: #181818; stroke-width: 1;" fill="#add1b2" cx="22" cy="638.352" rx="11" ry="11" /><path fill="#000000" d="M 24.7656 634.227 Q 24.9219 634.008 25.1094 633.898 Q 25.2969 633.789 25.5156 633.789 Q 25.8906 633.789 26.125 634.055 Q 26.3594 634.305 26.3594 634.914 L 26.3594 636.367 Q 26.3594 636.977 26.125 637.242 Q 25.8906 637.508 25.5156 637.508 Q 25.1719 637.508 24.9688 637.305 Q 24.7656 637.117 24.6563 636.602 Q 24.6094 636.242 24.4219 636.055 Q 24.0938 635.68 23.4844 635.461 Q 22.875 635.242 22.25 635.242 Q 21.4844 635.242 20.8438 635.57 Q 20.2188 635.898 19.7188 636.648 Q 19.2344 637.398 19.2344 638.43 L 19.2344 639.523 Q 19.2344 640.758 20.125 641.586 Q 21.0156 642.398 22.6094 642.398 Q 23.5469 642.398 24.2031 642.148 Q 24.5938 641.992 25.0156 641.555 Q 25.2813 641.289 25.4219 641.211 Q 25.5781 641.133 25.7813 641.133 Q 26.1094 641.133 26.3594 641.398 Q 26.625 641.648 26.625 641.992 Q 26.625 642.336 26.2813 642.742 Q 25.7813 643.32 24.9844 643.648 Q 23.9063 644.102 22.6094 644.102 Q 21.0938 644.102 19.8906 643.477 Q 18.9063 642.977 18.2188 641.914 Q 17.5313 640.836 17.5313 639.555 L 17.5313 638.398 Q 17.5313 637.07 18.1406 635.93 Q 18.7656 634.773 19.8594 634.164 Q 20.9531 633.539 22.1875 633.539 Q 22.9219 633.539 23.5625 633.711 Q 24.2188 633.867 24.7656 634.227 Z" /><text font-family="sans-serif" font-size="12" font-style="italic" fill="#000000" lengthAdjust="spacing" textLength="76" x="49" y="634.457">«Description»</text><text font-family="sans-serif" font-size="14" fill="#000000" lengthAdjust="spacing" textLength="102" x="36" y="651.627">ACLineSegment</text><line style="stroke: #454645; stroke-width: 1;" x1="8" y1="659.703" x2="140" y2="659.703" /></g><!--class Conductor--><g id="elem_Conductor"><rect id="Conductor" filter="url(&quot;#f1efeutlyjhhba&quot;)" style="stroke: #454645; stroke-width: 1;" fill="#d3d3d3" x="113" y="540.5" width="98" height="40" rx="2.5" ry="2.5" codeline="130" /><ellipse style="stroke: #181818; stroke-width: 1;" fill="#a9dcdf" cx="128" cy="556.5" rx="11" ry="11" /><path fill="#000000" d="M 130.188 558.266 L 126.047 558.266 L 125.625 559.297 L 126.047 559.297 Q 126.656 559.297 126.922 559.531 Q 127.188 559.766 127.188 560.156 Q 127.188 560.531 126.922 560.766 Q 126.656 561 126.047 561 L 123.75 561 Q 123.141 561 122.891 560.766 Q 122.625 560.531 122.625 560.141 Q 122.625 559.766 122.906 559.531 Q 123.172 559.281 123.797 559.297 L 126.469 552.641 L 125.359 552.641 Q 124.75 552.641 124.484 552.406 Q 124.219 552.172 124.219 551.781 Q 124.219 551.406 124.484 551.172 Q 124.75 550.938 125.359 550.938 L 129.031 550.938 L 132.422 559.297 Q 133.016 559.297 133.203 559.438 Q 133.594 559.703 133.594 560.156 Q 133.594 560.531 133.328 560.766 Q 133.078 561 132.469 561 L 130.172 561 Q 129.563 561 129.297 560.766 Q 129.031 560.531 129.031 560.141 Q 129.031 559.766 129.297 559.531 Q 129.563 559.297 130.172 559.297 L 130.594 559.297 L 130.188 558.266 Z M 129.469 556.563 L 128.109 553.188 L 126.734 556.563 L 129.469 556.563 Z" /><text font-family="sans-serif" font-size="14" font-style="italic" fill="#000000" lengthAdjust="spacing" textLength="66" x="142" y="562.2285">Conductor</text><line style="stroke: #454645; stroke-width: 1;" x1="114" y1="572.5" x2="210" y2="572.5" /></g><!--class AsynchronousMachine--><g id="elem_AsynchronousMachine"><rect id="AsynchronousMachine" filter="url(&quot;#f1efeutlyjhhba&quot;)" style="stroke: #454645; stroke-width: 1;" fill="#ffffe0" x="957.5" y="781" width="175" height="50.7031" rx="2.5" ry="2.5" codeline="106" /><ellipse style="stroke: #181818; stroke-width: 1;" fill="#add1b2" cx="972.5" cy="802.352" rx="11" ry="11" /><path fill="#000000" d="M 975.266 798.227 Q 975.422 798.008 975.609 797.898 Q 975.797 797.789 976.016 797.789 Q 976.391 797.789 976.625 798.055 Q 976.859 798.305 976.859 798.914 L 976.859 800.367 Q 976.859 800.977 976.625 801.242 Q 976.391 801.508 976.016 801.508 Q 975.672 801.508 975.469 801.305 Q 975.266 801.117 975.156 800.602 Q 975.109 800.242 974.922 800.055 Q 974.594 799.68 973.984 799.461 Q 973.375 799.242 972.75 799.242 Q 971.984 799.242 971.344 799.57 Q 970.719 799.898 970.219 800.648 Q 969.734 801.398 969.734 802.43 L 969.734 803.523 Q 969.734 804.758 970.625 805.586 Q 971.516 806.398 973.109 806.398 Q 974.047 806.398 974.703 806.148 Q 975.094 805.992 975.516 805.555 Q 975.781 805.289 975.922 805.211 Q 976.078 805.133 976.281 805.133 Q 976.609 805.133 976.859 805.398 Q 977.125 805.648 977.125 805.992 Q 977.125 806.336 976.781 806.742 Q 976.281 807.32 975.484 807.648 Q 974.406 808.102 973.109 808.102 Q 971.594 808.102 970.391 807.477 Q 969.406 806.977 968.719 805.914 Q 968.031 804.836 968.031 803.555 L 968.031 802.398 Q 968.031 801.07 968.641 799.93 Q 969.266 798.773 970.359 798.164 Q 971.453 797.539 972.688 797.539 Q 973.422 797.539 974.063 797.711 Q 974.719 797.867 975.266 798.227 Z" /><text font-family="sans-serif" font-size="12" font-style="italic" fill="#000000" lengthAdjust="spacing" textLength="76" x="1020" y="798.457">«Description»</text><text font-family="sans-serif" font-size="14" fill="#000000" lengthAdjust="spacing" textLength="143" x="986.5" y="815.627">AsynchronousMachine</text><line style="stroke: #454645; stroke-width: 1;" x1="958.5" y1="823.703" x2="1131.5" y2="823.703" /></g><!--class RotatingMachine--><g id="elem_RotatingMachine"><rect id="RotatingMachine" filter="url(&quot;#f1efeutlyjhhba&quot;)" style="stroke: #454645; stroke-width: 1;" fill="#d3d3d3" x="975.5" y="704.5" width="139" height="40" rx="2.5" ry="2.5" codeline="271" /><ellipse style="stroke: #181818; stroke-width: 1;" fill="#a9dcdf" cx="990.5" cy="720.5" rx="11" ry="11" /><path fill="#000000" d="M 992.688 722.266 L 988.547 722.266 L 988.125 723.297 L 988.547 723.297 Q 989.156 723.297 989.422 723.531 Q 989.688 723.766 989.688 724.156 Q 989.688 724.531 989.422 724.766 Q 989.156 725 988.547 725 L 986.25 725 Q 985.641 725 985.391 724.766 Q 985.125 724.531 985.125 724.141 Q 985.125 723.766 985.406 723.531 Q 985.672 723.281 986.297 723.297 L 988.969 716.641 L 987.859 716.641 Q 987.25 716.641 986.984 716.406 Q 986.719 716.172 986.719 715.781 Q 986.719 715.406 986.984 715.172 Q 987.25 714.938 987.859 714.938 L 991.531 714.938 L 994.922 723.297 Q 995.516 723.297 995.703 723.438 Q 996.094 723.703 996.094 724.156 Q 996.094 724.531 995.828 724.766 Q 995.578 725 994.969 725 L 992.672 725 Q 992.063 725 991.797 724.766 Q 991.531 724.531 991.531 724.141 Q 991.531 723.766 991.797 723.531 Q 992.063 723.297 992.672 723.297 L 993.094 723.297 L 992.688 722.266 Z M 991.969 720.563 L 990.609 717.188 L 989.234 720.563 L 991.969 720.563 Z" /><text font-family="sans-serif" font-size="14" font-style="italic" fill="#000000" lengthAdjust="spacing" textLength="107" x="1004.5" y="726.2285">RotatingMachine</text><line style="stroke: #454645; stroke-width: 1;" x1="976.5" y1="736.5" x2="1113.5" y2="736.5" /></g><!--class Breaker--><g id="elem_Breaker"><rect id="Breaker" filter="url(&quot;#f1efeutlyjhhba&quot;)" style="stroke: #454645; stroke-width: 1;" fill="#ffffe0" x="310" y="699" width="104" height="50.7031" rx="2.5" ry="2.5" codeline="112" /><ellipse style="stroke: #181818; stroke-width: 1;" fill="#add1b2" cx="325" cy="720.352" rx="11" ry="11" /><path fill="#000000" d="M 327.766 716.227 Q 327.922 716.008 328.109 715.898 Q 328.297 715.789 328.516 715.789 Q 328.891 715.789 329.125 716.055 Q 329.359 716.305 329.359 716.914 L 329.359 718.367 Q 329.359 718.977 329.125 719.242 Q 328.891 719.508 328.516 719.508 Q 328.172 719.508 327.969 719.305 Q 327.766 719.117 327.656 718.602 Q 327.609 718.242 327.422 718.055 Q 327.094 717.68 326.484 717.461 Q 325.875 717.242 325.25 717.242 Q 324.484 717.242 323.844 717.57 Q 323.219 717.898 322.719 718.648 Q 322.234 719.398 322.234 720.43 L 322.234 721.523 Q 322.234 722.758 323.125 723.586 Q 324.016 724.398 325.609 724.398 Q 326.547 724.398 327.203 724.148 Q 327.594 723.992 328.016 723.555 Q 328.281 723.289 328.422 723.211 Q 328.578 723.133 328.781 723.133 Q 329.109 723.133 329.359 723.398 Q 329.625 723.648 329.625 723.992 Q 329.625 724.336 329.281 724.742 Q 328.781 725.32 327.984 725.648 Q 326.906 726.102 325.609 726.102 Q 324.094 726.102 322.891 725.477 Q 321.906 724.977 321.219 723.914 Q 320.531 722.836 320.531 721.555 L 320.531 720.398 Q 320.531 719.07 321.141 717.93 Q 321.766 716.773 322.859 716.164 Q 323.953 715.539 325.188 715.539 Q 325.922 715.539 326.563 715.711 Q 327.219 715.867 327.766 716.227 Z" /><text font-family="sans-serif" font-size="12" font-style="italic" fill="#000000" lengthAdjust="spacing" textLength="76" x="337" y="716.457">«Description»</text><text font-family="sans-serif" font-size="14" fill="#000000" lengthAdjust="spacing" textLength="50" x="350" y="733.627">Breaker</text><line style="stroke: #454645; stroke-width: 1;" x1="311" y1="741.703" x2="413" y2="741.703" /></g><!--class ProtectedSwitch--><g id="elem_ProtectedSwitch"><rect id="ProtectedSwitch" filter="url(&quot;#f1efeutlyjhhba&quot;)" style="stroke: #454645; stroke-width: 1;" fill="#d3d3d3" x="438.5" y="622.5" width="133" height="40" rx="2.5" ry="2.5" codeline="253" /><ellipse style="stroke: #181818; stroke-width: 1;" fill="#a9dcdf" cx="453.5" cy="638.5" rx="11" ry="11" /><path fill="#000000" d="M 455.688 640.266 L 451.547 640.266 L 451.125 641.297 L 451.547 641.297 Q 452.156 641.297 452.422 641.531 Q 452.688 641.766 452.688 642.156 Q 452.688 642.531 452.422 642.766 Q 452.156 643 451.547 643 L 449.25 643 Q 448.641 643 448.391 642.766 Q 448.125 642.531 448.125 642.141 Q 448.125 641.766 448.406 641.531 Q 448.672 641.281 449.297 641.297 L 451.969 634.641 L 450.859 634.641 Q 450.25 634.641 449.984 634.406 Q 449.719 634.172 449.719 633.781 Q 449.719 633.406 449.984 633.172 Q 450.25 632.938 450.859 632.938 L 454.531 632.938 L 457.922 641.297 Q 458.516 641.297 458.703 641.438 Q 459.094 641.703 459.094 642.156 Q 459.094 642.531 458.828 642.766 Q 458.578 643 457.969 643 L 455.672 643 Q 455.063 643 454.797 642.766 Q 454.531 642.531 454.531 642.141 Q 454.531 641.766 454.797 641.531 Q 455.063 641.297 455.672 641.297 L 456.094 641.297 L 455.688 640.266 Z M 454.969 638.563 L 453.609 635.188 L 452.234 638.563 L 454.969 638.563 Z" /><text font-family="sans-serif" font-size="14" font-style="italic" fill="#000000" lengthAdjust="spacing" textLength="101" x="467.5" y="644.2285">ProtectedSwitch</text><line style="stroke: #454645; stroke-width: 1;" x1="439.5" y1="654.5" x2="570.5" y2="654.5" /></g><!--class BusbarSection--><g id="elem_BusbarSection"><rect id="BusbarSection" filter="url(&quot;#f1efeutlyjhhba&quot;)" style="stroke: #454645; stroke-width: 1;" fill="#ffffe0" x="161" y="617" width="124" height="50.7031" rx="2.5" ry="2.5" codeline="118" /><ellipse style="stroke: #181818; stroke-width: 1;" fill="#add1b2" cx="176" cy="638.352" rx="11" ry="11" /><path fill="#000000" d="M 178.766 634.227 Q 178.922 634.008 179.109 633.898 Q 179.297 633.789 179.516 633.789 Q 179.891 633.789 180.125 634.055 Q 180.359 634.305 180.359 634.914 L 180.359 636.367 Q 180.359 636.977 180.125 637.242 Q 179.891 637.508 179.516 637.508 Q 179.172 637.508 178.969 637.305 Q 178.766 637.117 178.656 636.602 Q 178.609 636.242 178.422 636.055 Q 178.094 635.68 177.484 635.461 Q 176.875 635.242 176.25 635.242 Q 175.484 635.242 174.844 635.57 Q 174.219 635.898 173.719 636.648 Q 173.234 637.398 173.234 638.43 L 173.234 639.523 Q 173.234 640.758 174.125 641.586 Q 175.016 642.398 176.609 642.398 Q 177.547 642.398 178.203 642.148 Q 178.594 641.992 179.016 641.555 Q 179.281 641.289 179.422 641.211 Q 179.578 641.133 179.781 641.133 Q 180.109 641.133 180.359 641.398 Q 180.625 641.648 180.625 641.992 Q 180.625 642.336 180.281 642.742 Q 179.781 643.32 178.984 643.648 Q 177.906 644.102 176.609 644.102 Q 175.094 644.102 173.891 643.477 Q 172.906 642.977 172.219 641.914 Q 171.531 640.836 171.531 639.555 L 171.531 638.398 Q 171.531 637.07 172.141 635.93 Q 172.766 634.773 173.859 634.164 Q 174.953 633.539 176.188 633.539 Q 176.922 633.539 177.563 633.711 Q 178.219 633.867 178.766 634.227 Z" /><text font-family="sans-serif" font-size="12" font-style="italic" fill="#000000" lengthAdjust="spacing" textLength="76" x="198" y="634.457">«Description»</text><text font-family="sans-serif" font-size="14" fill="#000000" lengthAdjust="spacing" textLength="92" x="190" y="651.627">BusbarSection</text><line style="stroke: #454645; stroke-width: 1;" x1="162" y1="659.703" x2="284" y2="659.703" /></g><!--class Connector--><g id="elem_Connector"><rect id="Connector" filter="url(&quot;#f1efeutlyjhhba&quot;)" style="stroke: #454645; stroke-width: 1;" fill="#d3d3d3" x="407" y="540.5" width="98" height="40" rx="2.5" ry="2.5" codeline="136" /><ellipse style="stroke: #181818; stroke-width: 1;" fill="#a9dcdf" cx="422" cy="556.5" rx="11" ry="11" /><path fill="#000000" d="M 424.188 558.266 L 420.047 558.266 L 419.625 559.297 L 420.047 559.297 Q 420.656 559.297 420.922 559.531 Q 421.188 559.766 421.188 560.156 Q 421.188 560.531 420.922 560.766 Q 420.656 561 420.047 561 L 417.75 561 Q 417.141 561 416.891 560.766 Q 416.625 560.531 416.625 560.141 Q 416.625 559.766 416.906 559.531 Q 417.172 559.281 417.797 559.297 L 420.469 552.641 L 419.359 552.641 Q 418.75 552.641 418.484 552.406 Q 418.219 552.172 418.219 551.781 Q 418.219 551.406 418.484 551.172 Q 418.75 550.938 419.359 550.938 L 423.031 550.938 L 426.422 559.297 Q 427.016 559.297 427.203 559.438 Q 427.594 559.703 427.594 560.156 Q 427.594 560.531 427.328 560.766 Q 427.078 561 426.469 561 L 424.172 561 Q 423.563 561 423.297 560.766 Q 423.031 560.531 423.031 560.141 Q 423.031 559.766 423.297 559.531 Q 423.563 559.297 424.172 559.297 L 424.594 559.297 L 424.188 558.266 Z M 423.469 556.563 L 422.109 553.188 L 420.734 556.563 L 423.469 556.563 Z" /><text font-family="sans-serif" font-size="14" font-style="italic" fill="#000000" lengthAdjust="spacing" textLength="66" x="436" y="562.2285">Connector</text><line style="stroke: #454645; stroke-width: 1;" x1="408" y1="572.5" x2="504" y2="572.5" /></g><!--class ConductingEquipment--><g id="elem_ConductingEquipment"><rect id="ConductingEquipment" filter="url(&quot;#f1efeutlyjhhba&quot;)" style="stroke: #454645; stroke-width: 1;" fill="#d3d3d3" x="621.5" y="464" width="171" height="40" rx="2.5" ry="2.5" codeline="124" /><ellipse style="stroke: #181818; stroke-width: 1;" fill="#a9dcdf" cx="636.5" cy="480" rx="11" ry="11" /><path fill="#000000" d="M 638.688 481.766 L 634.547 481.766 L 634.125 482.797 L 634.547 482.797 Q 635.156 482.797 635.422 483.031 Q 635.688 483.266 635.688 483.656 Q 635.688 484.031 635.422 484.266 Q 635.156 484.5 634.547 484.5 L 632.25 484.5 Q 631.641 484.5 631.391 484.266 Q 631.125 484.031 631.125 483.641 Q 631.125 483.266 631.406 483.031 Q 631.672 482.781 632.297 482.797 L 634.969 476.141 L 633.859 476.141 Q 633.25 476.141 632.984 475.906 Q 632.719 475.672 632.719 475.281 Q 632.719 474.906 632.984 474.672 Q 633.25 474.438 633.859 474.438 L 637.531 474.438 L 640.922 482.797 Q 641.516 482.797 641.703 482.938 Q 642.094 483.203 642.094 483.656 Q 642.094 484.031 641.828 484.266 Q 641.578 484.5 640.969 484.5 L 638.672 484.5 Q 638.063 484.5 637.797 484.266 Q 637.531 484.031 637.531 483.641 Q 637.531 483.266 637.797 483.031 Q 638.063 482.797 638.672 482.797 L 639.094 482.797 L 638.688 481.766 Z M 637.969 480.063 L 636.609 476.688 L 635.234 480.063 L 637.969 480.063 Z" /><text font-family="sans-serif" font-size="14" font-style="italic" fill="#000000" lengthAdjust="spacing" textLength="139" x="650.5" y="485.7285">ConductingEquipment</text><line style="stroke: #454645; stroke-width: 1;" x1="622.5" y1="496" x2="791.5" y2="496" /></g><!--class Equipment--><g id="elem_Equipment"><rect id="Equipment" filter="url(&quot;#f1efeutlyjhhba&quot;)" style="stroke: #454645; stroke-width: 1;" fill="#d3d3d3" x="657.5" y="393" width="99" height="40" rx="2.5" ry="2.5" codeline="178" /><ellipse style="stroke: #181818; stroke-width: 1;" fill="#a9dcdf" cx="672.5" cy="409" rx="11" ry="11" /><path fill="#000000" d="M 674.688 410.766 L 670.547 410.766 L 670.125 411.797 L 670.547 411.797 Q 671.156 411.797 671.422 412.031 Q 671.688 412.266 671.688 412.656 Q 671.688 413.031 671.422 413.266 Q 671.156 413.5 670.547 413.5 L 668.25 413.5 Q 667.641 413.5 667.391 413.266 Q 667.125 413.031 667.125 412.641 Q 667.125 412.266 667.406 412.031 Q 667.672 411.781 668.297 411.797 L 670.969 405.141 L 669.859 405.141 Q 669.25 405.141 668.984 404.906 Q 668.719 404.672 668.719 404.281 Q 668.719 403.906 668.984 403.672 Q 669.25 403.438 669.859 403.438 L 673.531 403.438 L 676.922 411.797 Q 677.516 411.797 677.703 411.938 Q 678.094 412.203 678.094 412.656 Q 678.094 413.031 677.828 413.266 Q 677.578 413.5 676.969 413.5 L 674.672 413.5 Q 674.063 413.5 673.797 413.266 Q 673.531 413.031 673.531 412.641 Q 673.531 412.266 673.797 412.031 Q 674.063 411.797 674.672 411.797 L 675.094 411.797 L 674.688 410.766 Z M 673.969 409.063 L 672.609 405.688 L 671.234 409.063 L 673.969 409.063 Z" /><text font-family="sans-serif" font-size="14" font-style="italic" fill="#000000" lengthAdjust="spacing" textLength="67" x="686.5" y="414.7285">Equipment</text><line style="stroke: #454645; stroke-width: 1;" x1="658.5" y1="425" x2="755.5" y2="425" /></g><!--class CoordinateSystem--><g id="elem_CoordinateSystem"><rect id="CoordinateSystem" filter="url(&quot;#f1efeutlyjhhba&quot;)" style="stroke: #454645; stroke-width: 1;" fill="#ffffe0" x="315" y="464" width="148" height="40" rx="2.5" ry="2.5" codeline="142" /><ellipse style="stroke: #181818; stroke-width: 1;" fill="#add1b2" cx="330" cy="480" rx="11" ry="11" /><path fill="#000000" d="M 332.766 475.875 Q 332.922 475.656 333.109 475.547 Q 333.297 475.438 333.516 475.438 Q 333.891 475.438 334.125 475.703 Q 334.359 475.953 334.359 476.563 L 334.359 478.016 Q 334.359 478.625 334.125 478.891 Q 333.891 479.156 333.516 479.156 Q 333.172 479.156 332.969 478.953 Q 332.766 478.766 332.656 478.25 Q 332.609 477.891 332.422 477.703 Q 332.094 477.328 331.484 477.109 Q 330.875 476.891 330.25 476.891 Q 329.484 476.891 328.844 477.219 Q 328.219 477.547 327.719 478.297 Q 327.234 479.047 327.234 480.078 L 327.234 481.172 Q 327.234 482.406 328.125 483.234 Q 329.016 484.047 330.609 484.047 Q 331.547 484.047 332.203 483.797 Q 332.594 483.641 333.016 483.203 Q 333.281 482.938 333.422 482.859 Q 333.578 482.781 333.781 482.781 Q 334.109 482.781 334.359 483.047 Q 334.625 483.297 334.625 483.641 Q 334.625 483.984 334.281 484.391 Q 333.781 484.969 332.984 485.297 Q 331.906 485.75 330.609 485.75 Q 329.094 485.75 327.891 485.125 Q 326.906 484.625 326.219 483.563 Q 325.531 482.484 325.531 481.203 L 325.531 480.047 Q 325.531 478.719 326.141 477.578 Q 326.766 476.422 327.859 475.813 Q 328.953 475.188 330.188 475.188 Q 330.922 475.188 331.563 475.359 Q 332.219 475.516 332.766 475.875 Z" /><text font-family="sans-serif" font-size="14" fill="#000000" lengthAdjust="spacing" textLength="116" x="344" y="485.7285">CoordinateSystem</text><line style="stroke: #454645; stroke-width: 1;" x1="316" y1="496" x2="462" y2="496" /></g><!--class IdentifiedObject--><g id="elem_IdentifiedObject"><rect id="IdentifiedObject" filter="url(&quot;#f1efeutlyjhhba&quot;)" style="stroke: #454645; stroke-width: 1;" fill="#d3d3d3" x="487" y="96" width="178" height="75.2188" rx="2.5" ry="2.5" codeline="190" /><ellipse style="stroke: #181818; stroke-width: 1;" fill="#a9dcdf" cx="523.15" cy="112" rx="11" ry="11" /><path fill="#000000" d="M 525.338 113.766 L 521.197 113.766 L 520.775 114.797 L 521.197 114.797 Q 521.806 114.797 522.072 115.031 Q 522.338 115.266 522.338 115.656 Q 522.338 116.031 522.072 116.266 Q 521.806 116.5 521.197 116.5 L 518.9 116.5 Q 518.291 116.5 518.041 116.266 Q 517.775 116.031 517.775 115.641 Q 517.775 115.266 518.056 115.031 Q 518.322 114.781 518.947 114.797 L 521.619 108.141 L 520.509 108.141 Q 519.9 108.141 519.634 107.906 Q 519.369 107.672 519.369 107.281 Q 519.369 106.906 519.634 106.672 Q 519.9 106.438 520.509 106.438 L 524.181 106.438 L 527.572 114.797 Q 528.166 114.797 528.353 114.938 Q 528.744 115.203 528.744 115.656 Q 528.744 116.031 528.478 116.266 Q 528.228 116.5 527.619 116.5 L 525.322 116.5 Q 524.713 116.5 524.447 116.266 Q 524.181 116.031 524.181 115.641 Q 524.181 115.266 524.447 115.031 Q 524.713 114.797 525.322 114.797 L 525.744 114.797 L 525.338 113.766 Z M 524.619 112.063 L 523.259 108.688 L 521.884 112.063 L 524.619 112.063 Z" /><text font-family="sans-serif" font-size="14" font-style="italic" fill="#000000" lengthAdjust="spacing" textLength="99" x="541.85" y="117.7285">IdentifiedObject</text><line style="stroke: #454645; stroke-width: 1;" x1="488" y1="128" x2="664" y2="128" /><ellipse style="stroke: #038048; stroke-width: 1;" fill="none" cx="498" cy="142.305" rx="3" ry="3" /><text font-family="sans-serif" font-size="14" fill="#000000" lengthAdjust="spacing" textLength="152" x="507" y="146.5332">description : string [0..1]</text><ellipse style="stroke: #038048; stroke-width: 1;" fill="none" cx="498" cy="159.914" rx="3" ry="3" /><text font-family="sans-serif" font-size="14" fill="#000000" lengthAdjust="spacing" textLength="118" x="507" y="164.1426">name : string [0..1]</text></g><!--class Disconnector--><g id="elem_Disconnector"><rect id="Disconnector" filter="url(&quot;#f1efeutlyjhhba&quot;)" style="stroke: #454645; stroke-width: 1;" fill="#ffffe0" x="591.5" y="617" width="115" height="50.7031" rx="2.5" ry="2.5" codeline="148" /><ellipse style="stroke: #181818; stroke-width: 1;" fill="#add1b2" cx="606.5" cy="638.352" rx="11" ry="11" /><path fill="#000000" d="M 609.266 634.227 Q 609.422 634.008 609.609 633.898 Q 609.797 633.789 610.016 633.789 Q 610.391 633.789 610.625 634.055 Q 610.859 634.305 610.859 634.914 L 610.859 636.367 Q 610.859 636.977 610.625 637.242 Q 610.391 637.508 610.016 637.508 Q 609.672 637.508 609.469 637.305 Q 609.266 637.117 609.156 636.602 Q 609.109 636.242 608.922 636.055 Q 608.594 635.68 607.984 635.461 Q 607.375 635.242 606.75 635.242 Q 605.984 635.242 605.344 635.57 Q 604.719 635.898 604.219 636.648 Q 603.734 637.398 603.734 638.43 L 603.734 639.523 Q 603.734 640.758 604.625 641.586 Q 605.516 642.398 607.109 642.398 Q 608.047 642.398 608.703 642.148 Q 609.094 641.992 609.516 641.555 Q 609.781 641.289 609.922 641.211 Q 610.078 641.133 610.281 641.133 Q 610.609 641.133 610.859 641.398 Q 611.125 641.648 611.125 641.992 Q 611.125 642.336 610.781 642.742 Q 610.281 643.32 609.484 643.648 Q 608.406 644.102 607.109 644.102 Q 605.594 644.102 604.391 643.477 Q 603.406 642.977 602.719 641.914 Q 602.031 640.836 602.031 639.555 L 602.031 638.398 Q 602.031 637.07 602.641 635.93 Q 603.266 634.773 604.359 634.164 Q 605.453 633.539 606.688 633.539 Q 607.422 633.539 608.063 633.711 Q 608.719 633.867 609.266 634.227 Z" /><text font-family="sans-serif" font-size="12" font-style="italic" fill="#000000" lengthAdjust="spacing" textLength="76" x="624" y="634.457">«Description»</text><text font-family="sans-serif" font-size="14" fill="#000000" lengthAdjust="spacing" textLength="83" x="620.5" y="651.627">Disconnector</text><line style="stroke: #454645; stroke-width: 1;" x1="592.5" y1="659.703" x2="705.5" y2="659.703" /></g><!--class Switch--><g id="elem_Switch"><rect id="Switch" filter="url(&quot;#f1efeutlyjhhba&quot;)" style="stroke: #454645; stroke-width: 1;" fill="#d3d3d3" x="613" y="540.5" width="72" height="40" rx="2.5" ry="2.5" codeline="300" /><ellipse style="stroke: #181818; stroke-width: 1;" fill="#a9dcdf" cx="628" cy="556.5" rx="11" ry="11" /><path fill="#000000" d="M 630.188 558.266 L 626.047 558.266 L 625.625 559.297 L 626.047 559.297 Q 626.656 559.297 626.922 559.531 Q 627.188 559.766 627.188 560.156 Q 627.188 560.531 626.922 560.766 Q 626.656 561 626.047 561 L 623.75 561 Q 623.141 561 622.891 560.766 Q 622.625 560.531 622.625 560.141 Q 622.625 559.766 622.906 559.531 Q 623.172 559.281 623.797 559.297 L 626.469 552.641 L 625.359 552.641 Q 624.75 552.641 624.484 552.406 Q 624.219 552.172 624.219 551.781 Q 624.219 551.406 624.484 551.172 Q 624.75 550.938 625.359 550.938 L 629.031 550.938 L 632.422 559.297 Q 633.016 559.297 633.203 559.438 Q 633.594 559.703 633.594 560.156 Q 633.594 560.531 633.328 560.766 Q 633.078 561 632.469 561 L 630.172 561 Q 629.563 561 629.297 560.766 Q 629.031 560.531 629.031 560.141 Q 629.031 559.766 629.297 559.531 Q 629.563 559.297 630.172 559.297 L 630.594 559.297 L 630.188 558.266 Z M 629.469 556.563 L 628.109 553.188 L 626.734 556.563 L 629.469 556.563 Z" /><text font-family="sans-serif" font-size="14" font-style="italic" fill="#000000" lengthAdjust="spacing" textLength="40" x="642" y="562.2285">Switch</text><line style="stroke: #454645; stroke-width: 1;" x1="614" y1="572.5" x2="684" y2="572.5" /></g><!--class ElectronicAddress--><g id="elem_ElectronicAddress"><rect id="ElectronicAddress" filter="url(&quot;#f1efeutlyjhhba&quot;)" style="stroke: #454645; stroke-width: 1;" fill="#d3d3d3" x="282" y="311" width="146" height="50.7031" rx="2.5" ry="2.5" codeline="154" /><ellipse style="stroke: #181818; stroke-width: 1;" fill="#a9dcdf" cx="297" cy="332.352" rx="11" ry="11" /><path fill="#000000" d="M 299.188 334.117 L 295.047 334.117 L 294.625 335.148 L 295.047 335.148 Q 295.656 335.148 295.922 335.383 Q 296.188 335.617 296.188 336.008 Q 296.188 336.383 295.922 336.617 Q 295.656 336.852 295.047 336.852 L 292.75 336.852 Q 292.141 336.852 291.891 336.617 Q 291.625 336.383 291.625 335.992 Q 291.625 335.617 291.906 335.383 Q 292.172 335.133 292.797 335.148 L 295.469 328.492 L 294.359 328.492 Q 293.75 328.492 293.484 328.258 Q 293.219 328.023 293.219 327.633 Q 293.219 327.258 293.484 327.023 Q 293.75 326.789 294.359 326.789 L 298.031 326.789 L 301.422 335.148 Q 302.016 335.148 302.203 335.289 Q 302.594 335.555 302.594 336.008 Q 302.594 336.383 302.328 336.617 Q 302.078 336.852 301.469 336.852 L 299.172 336.852 Q 298.563 336.852 298.297 336.617 Q 298.031 336.383 298.031 335.992 Q 298.031 335.617 298.297 335.383 Q 298.563 335.148 299.172 335.148 L 299.594 335.148 L 299.188 334.117 Z M 298.469 332.414 L 297.109 329.039 L 295.734 332.414 L 298.469 332.414 Z" /><text font-family="sans-serif" font-size="12" font-style="italic" fill="#000000" lengthAdjust="spacing" textLength="76" x="330" y="328.457">«deprecated»</text><text font-family="sans-serif" font-size="14" font-style="italic" fill="#000000" lengthAdjust="spacing" textLength="114" x="311" y="345.627">ElectronicAddress</text><line style="stroke: #454645; stroke-width: 1;" x1="283" y1="353.703" x2="427" y2="353.703" /></g><!--class EnergyConnection--><g id="elem_EnergyConnection"><rect id="EnergyConnection" filter="url(&quot;#f1efeutlyjhhba&quot;)" style="stroke: #454645; stroke-width: 1;" fill="#d3d3d3" x="776.5" y="540.5" width="149" height="40" rx="2.5" ry="2.5" codeline="160" /><ellipse style="stroke: #181818; stroke-width: 1;" fill="#a9dcdf" cx="791.5" cy="556.5" rx="11" ry="11" /><path fill="#000000" d="M 793.688 558.266 L 789.547 558.266 L 789.125 559.297 L 789.547 559.297 Q 790.156 559.297 790.422 559.531 Q 790.688 559.766 790.688 560.156 Q 790.688 560.531 790.422 560.766 Q 790.156 561 789.547 561 L 787.25 561 Q 786.641 561 786.391 560.766 Q 786.125 560.531 786.125 560.141 Q 786.125 559.766 786.406 559.531 Q 786.672 559.281 787.297 559.297 L 789.969 552.641 L 788.859 552.641 Q 788.25 552.641 787.984 552.406 Q 787.719 552.172 787.719 551.781 Q 787.719 551.406 787.984 551.172 Q 788.25 550.938 788.859 550.938 L 792.531 550.938 L 795.922 559.297 Q 796.516 559.297 796.703 559.438 Q 797.094 559.703 797.094 560.156 Q 797.094 560.531 796.828 560.766 Q 796.578 561 795.969 561 L 793.672 561 Q 793.063 561 792.797 560.766 Q 792.531 560.531 792.531 560.141 Q 792.531 559.766 792.797 559.531 Q 793.063 559.297 793.672 559.297 L 794.094 559.297 L 793.688 558.266 Z M 792.969 556.563 L 791.609 553.188 L 790.234 556.563 L 792.969 556.563 Z" /><text font-family="sans-serif" font-size="14" font-style="italic" fill="#000000" lengthAdjust="spacing" textLength="117" x="805.5" y="562.2285">EnergyConnection</text><line style="stroke: #454645; stroke-width: 1;" x1="777.5" y1="572.5" x2="924.5" y2="572.5" /></g><!--class EnergyConsumer--><g id="elem_EnergyConsumer"><rect id="EnergyConsumer" filter="url(&quot;#f1efeutlyjhhba&quot;)" style="stroke: #454645; stroke-width: 1;" fill="#ffffe0" x="851" y="617" width="142" height="50.7031" rx="2.5" ry="2.5" codeline="166" /><ellipse style="stroke: #181818; stroke-width: 1;" fill="#add1b2" cx="866" cy="638.352" rx="11" ry="11" /><path fill="#000000" d="M 868.766 634.227 Q 868.922 634.008 869.109 633.898 Q 869.297 633.789 869.516 633.789 Q 869.891 633.789 870.125 634.055 Q 870.359 634.305 870.359 634.914 L 870.359 636.367 Q 870.359 636.977 870.125 637.242 Q 869.891 637.508 869.516 637.508 Q 869.172 637.508 868.969 637.305 Q 868.766 637.117 868.656 636.602 Q 868.609 636.242 868.422 636.055 Q 868.094 635.68 867.484 635.461 Q 866.875 635.242 866.25 635.242 Q 865.484 635.242 864.844 635.57 Q 864.219 635.898 863.719 636.648 Q 863.234 637.398 863.234 638.43 L 863.234 639.523 Q 863.234 640.758 864.125 641.586 Q 865.016 642.398 866.609 642.398 Q 867.547 642.398 868.203 642.148 Q 868.594 641.992 869.016 641.555 Q 869.281 641.289 869.422 641.211 Q 869.578 641.133 869.781 641.133 Q 870.109 641.133 870.359 641.398 Q 870.625 641.648 870.625 641.992 Q 870.625 642.336 870.281 642.742 Q 869.781 643.32 868.984 643.648 Q 867.906 644.102 866.609 644.102 Q 865.094 644.102 863.891 643.477 Q 862.906 642.977 862.219 641.914 Q 861.531 640.836 861.531 639.555 L 861.531 638.398 Q 861.531 637.07 862.141 635.93 Q 862.766 634.773 863.859 634.164 Q 864.953 633.539 866.188 633.539 Q 866.922 633.539 867.563 633.711 Q 868.219 633.867 868.766 634.227 Z" /><text font-family="sans-serif" font-size="12" font-style="italic" fill="#000000" lengthAdjust="spacing" textLength="76" x="897" y="634.457">«Description»</text><text font-family="sans-serif" font-size="14" fill="#000000" lengthAdjust="spacing" textLength="110" x="880" y="651.627">EnergyConsumer</text><line style="stroke: #454645; stroke-width: 1;" x1="852" y1="659.703" x2="992" y2="659.703" /></g><!--class EnergySource--><g id="elem_EnergySource"><rect id="EnergySource" filter="url(&quot;#f1efeutlyjhhba&quot;)" style="stroke: #454645; stroke-width: 1;" fill="#ffffe0" x="1013" y="617" width="122" height="50.7031" rx="2.5" ry="2.5" codeline="172" /><ellipse style="stroke: #181818; stroke-width: 1;" fill="#add1b2" cx="1028" cy="638.352" rx="11" ry="11" /><path fill="#000000" d="M 1030.77 634.227 Q 1030.92 634.008 1031.11 633.898 Q 1031.3 633.789 1031.52 633.789 Q 1031.89 633.789 1032.13 634.055 Q 1032.36 634.305 1032.36 634.914 L 1032.36 636.367 Q 1032.36 636.977 1032.13 637.242 Q 1031.89 637.508 1031.52 637.508 Q 1031.17 637.508 1030.97 637.305 Q 1030.77 637.117 1030.66 636.602 Q 1030.61 636.242 1030.42 636.055 Q 1030.09 635.68 1029.48 635.461 Q 1028.88 635.242 1028.25 635.242 Q 1027.48 635.242 1026.84 635.57 Q 1026.22 635.898 1025.72 636.648 Q 1025.23 637.398 1025.23 638.43 L 1025.23 639.523 Q 1025.23 640.758 1026.13 641.586 Q 1027.02 642.398 1028.61 642.398 Q 1029.55 642.398 1030.2 642.148 Q 1030.59 641.992 1031.02 641.555 Q 1031.28 641.289 1031.42 641.211 Q 1031.58 641.133 1031.78 641.133 Q 1032.11 641.133 1032.36 641.398 Q 1032.63 641.648 1032.63 641.992 Q 1032.63 642.336 1032.28 642.742 Q 1031.78 643.32 1030.98 643.648 Q 1029.91 644.102 1028.61 644.102 Q 1027.09 644.102 1025.89 643.477 Q 1024.91 642.977 1024.22 641.914 Q 1023.53 640.836 1023.53 639.555 L 1023.53 638.398 Q 1023.53 637.07 1024.14 635.93 Q 1024.77 634.773 1025.86 634.164 Q 1026.95 633.539 1028.19 633.539 Q 1028.92 633.539 1029.56 633.711 Q 1030.22 633.867 1030.77 634.227 Z" /><text font-family="sans-serif" font-size="12" font-style="italic" fill="#000000" lengthAdjust="spacing" textLength="76" x="1049" y="634.457">«Description»</text><text font-family="sans-serif" font-size="14" fill="#000000" lengthAdjust="spacing" textLength="90" x="1042" y="651.627">EnergySource</text><line style="stroke: #454645; stroke-width: 1;" x1="1014" y1="659.703" x2="1134" y2="659.703" /></g><!--class PowerSystemResource--><g id="elem_PowerSystemResource"><rect id="PowerSystemResource" filter="url(&quot;#f1efeutlyjhhba&quot;)" style="stroke: #454645; stroke-width: 1;" fill="#d3d3d3" x="618" y="316.5" width="178" height="40" rx="2.5" ry="2.5" codeline="240" /><ellipse style="stroke: #181818; stroke-width: 1;" fill="#a9dcdf" cx="633" cy="332.5" rx="11" ry="11" /><path fill="#000000" d="M 635.188 334.266 L 631.047 334.266 L 630.625 335.297 L 631.047 335.297 Q 631.656 335.297 631.922 335.531 Q 632.188 335.766 632.188 336.156 Q 632.188 336.531 631.922 336.766 Q 631.656 337 631.047 337 L 628.75 337 Q 628.141 337 627.891 336.766 Q 627.625 336.531 627.625 336.141 Q 627.625 335.766 627.906 335.531 Q 628.172 335.281 628.797 335.297 L 631.469 328.641 L 630.359 328.641 Q 629.75 328.641 629.484 328.406 Q 629.219 328.172 629.219 327.781 Q 629.219 327.406 629.484 327.172 Q 629.75 326.938 630.359 326.938 L 634.031 326.938 L 637.422 335.297 Q 638.016 335.297 638.203 335.438 Q 638.594 335.703 638.594 336.156 Q 638.594 336.531 638.328 336.766 Q 638.078 337 637.469 337 L 635.172 337 Q 634.563 337 634.297 336.766 Q 634.031 336.531 634.031 336.141 Q 634.031 335.766 634.297 335.531 Q 634.563 335.297 635.172 335.297 L 635.594 335.297 L 635.188 334.266 Z M 634.469 332.563 L 633.109 329.188 L 631.734 332.563 L 634.469 332.563 Z" /><text font-family="sans-serif" font-size="14" font-style="italic" fill="#000000" lengthAdjust="spacing" textLength="146" x="647" y="338.2285">PowerSystemResource</text><line style="stroke: #454645; stroke-width: 1;" x1="619" y1="348.5" x2="795" y2="348.5" /></g><!--class Fuse--><g id="elem_Fuse"><rect id="Fuse" filter="url(&quot;#f1efeutlyjhhba&quot;)" style="stroke: #454645; stroke-width: 1;" fill="#ffffe0" x="727" y="617" width="104" height="50.7031" rx="2.5" ry="2.5" codeline="184" /><ellipse style="stroke: #181818; stroke-width: 1;" fill="#add1b2" cx="742" cy="638.352" rx="11" ry="11" /><path fill="#000000" d="M 744.766 634.227 Q 744.922 634.008 745.109 633.898 Q 745.297 633.789 745.516 633.789 Q 745.891 633.789 746.125 634.055 Q 746.359 634.305 746.359 634.914 L 746.359 636.367 Q 746.359 636.977 746.125 637.242 Q 745.891 637.508 745.516 637.508 Q 745.172 637.508 744.969 637.305 Q 744.766 637.117 744.656 636.602 Q 744.609 636.242 744.422 636.055 Q 744.094 635.68 743.484 635.461 Q 742.875 635.242 742.25 635.242 Q 741.484 635.242 740.844 635.57 Q 740.219 635.898 739.719 636.648 Q 739.234 637.398 739.234 638.43 L 739.234 639.523 Q 739.234 640.758 740.125 641.586 Q 741.016 642.398 742.609 642.398 Q 743.547 642.398 744.203 642.148 Q 744.594 641.992 745.016 641.555 Q 745.281 641.289 745.422 641.211 Q 745.578 641.133 745.781 641.133 Q 746.109 641.133 746.359 641.398 Q 746.625 641.648 746.625 641.992 Q 746.625 642.336 746.281 642.742 Q 745.781 643.32 744.984 643.648 Q 743.906 644.102 742.609 644.102 Q 741.094 644.102 739.891 643.477 Q 738.906 642.977 738.219 641.914 Q 737.531 640.836 737.531 639.555 L 737.531 638.398 Q 737.531 637.07 738.141 635.93 Q 738.766 634.773 739.859 634.164 Q 740.953 633.539 742.188 633.539 Q 742.922 633.539 743.563 633.711 Q 744.219 633.867 744.766 634.227 Z" /><text font-family="sans-serif" font-size="12" font-style="italic" fill="#000000" lengthAdjust="spacing" textLength="76" x="754" y="634.457">«Description»</text><text font-family="sans-serif" font-size="14" fill="#000000" lengthAdjust="spacing" textLength="32" x="776" y="651.627">Fuse</text><line style="stroke: #454645; stroke-width: 1;" x1="728" y1="659.703" x2="830" y2="659.703" /></g><!--class Identity--><g id="elem_Identity"><rect id="Identity" filter="url(&quot;#f1efeutlyjhhba&quot;)" style="stroke: #454645; stroke-width: 1;" fill="#d3d3d3" x="694.5" y="7" width="147" height="57.6094" rx="2.5" ry="2.5" codeline="198" /><ellipse style="stroke: #181818; stroke-width: 1;" fill="#a9dcdf" cx="740.75" cy="23" rx="11" ry="11" /><path fill="#000000" d="M 742.938 24.7656 L 738.797 24.7656 L 738.375 25.7969 L 738.797 25.7969 Q 739.406 25.7969 739.672 26.0313 Q 739.938 26.2656 739.938 26.6563 Q 739.938 27.0313 739.672 27.2656 Q 739.406 27.5 738.797 27.5 L 736.5 27.5 Q 735.891 27.5 735.641 27.2656 Q 735.375 27.0313 735.375 26.6406 Q 735.375 26.2656 735.656 26.0313 Q 735.922 25.7813 736.547 25.7969 L 739.219 19.1406 L 738.109 19.1406 Q 737.5 19.1406 737.234 18.9063 Q 736.969 18.6719 736.969 18.2813 Q 736.969 17.9063 737.234 17.6719 Q 737.5 17.4375 738.109 17.4375 L 741.781 17.4375 L 745.172 25.7969 Q 745.766 25.7969 745.953 25.9375 Q 746.344 26.2031 746.344 26.6563 Q 746.344 27.0313 746.078 27.2656 Q 745.828 27.5 745.219 27.5 L 742.922 27.5 Q 742.313 27.5 742.047 27.2656 Q 741.781 27.0313 741.781 26.6406 Q 741.781 26.2656 742.047 26.0313 Q 742.313 25.7969 742.922 25.7969 L 743.344 25.7969 L 742.938 24.7656 Z M 742.219 23.0625 L 740.859 19.6875 L 739.484 23.0625 L 742.219 23.0625 Z" /><text font-family="sans-serif" font-size="14" font-style="italic" fill="#000000" lengthAdjust="spacing" textLength="46" x="761.25" y="28.7285">Identity</text><line style="stroke: #454645; stroke-width: 1;" x1="695.5" y1="39" x2="840.5" y2="39" /><ellipse style="stroke: #038048; stroke-width: 1;" fill="none" cx="705.5" cy="53.3047" rx="3" ry="3" /><text font-family="sans-serif" font-size="14" fill="#000000" lengthAdjust="spacing" textLength="121" x="714.5" y="57.5332">identifier : string [1]</text></g><!--class LinearShuntCompensator--><g id="elem_LinearShuntCompensator"><rect id="LinearShuntCompensator" filter="url(&quot;#f1efeutlyjhhba&quot;)" style="stroke: #454645; stroke-width: 1;" fill="#ffffe0" x="1153" y="781" width="194" height="50.7031" rx="2.5" ry="2.5" codeline="204" /><ellipse style="stroke: #181818; stroke-width: 1;" fill="#add1b2" cx="1168" cy="802.352" rx="11" ry="11" /><path fill="#000000" d="M 1170.77 798.227 Q 1170.92 798.008 1171.11 797.898 Q 1171.3 797.789 1171.52 797.789 Q 1171.89 797.789 1172.13 798.055 Q 1172.36 798.305 1172.36 798.914 L 1172.36 800.367 Q 1172.36 800.977 1172.13 801.242 Q 1171.89 801.508 1171.52 801.508 Q 1171.17 801.508 1170.97 801.305 Q 1170.77 801.117 1170.66 800.602 Q 1170.61 800.242 1170.42 800.055 Q 1170.09 799.68 1169.48 799.461 Q 1168.88 799.242 1168.25 799.242 Q 1167.48 799.242 1166.84 799.57 Q 1166.22 799.898 1165.72 800.648 Q 1165.23 801.398 1165.23 802.43 L 1165.23 803.523 Q 1165.23 804.758 1166.13 805.586 Q 1167.02 806.398 1168.61 806.398 Q 1169.55 806.398 1170.2 806.148 Q 1170.59 805.992 1171.02 805.555 Q 1171.28 805.289 1171.42 805.211 Q 1171.58 805.133 1171.78 805.133 Q 1172.11 805.133 1172.36 805.398 Q 1172.63 805.648 1172.63 805.992 Q 1172.63 806.336 1172.28 806.742 Q 1171.78 807.32 1170.98 807.648 Q 1169.91 808.102 1168.61 808.102 Q 1167.09 808.102 1165.89 807.477 Q 1164.91 806.977 1164.22 805.914 Q 1163.53 804.836 1163.53 803.555 L 1163.53 802.398 Q 1163.53 801.07 1164.14 799.93 Q 1164.77 798.773 1165.86 798.164 Q 1166.95 797.539 1168.19 797.539 Q 1168.92 797.539 1169.56 797.711 Q 1170.22 797.867 1170.77 798.227 Z" /><text font-family="sans-serif" font-size="12" font-style="italic" fill="#000000" lengthAdjust="spacing" textLength="76" x="1225" y="798.457">«Description»</text><text font-family="sans-serif" font-size="14" fill="#000000" lengthAdjust="spacing" textLength="162" x="1182" y="815.627">LinearShuntCompensator</text><line style="stroke: #454645; stroke-width: 1;" x1="1154" y1="823.703" x2="1346" y2="823.703" /></g><!--class ShuntCompensator--><g id="elem_ShuntCompensator"><rect id="ShuntCompensator" filter="url(&quot;#f1efeutlyjhhba&quot;)" style="stroke: #454645; stroke-width: 1;" fill="#d3d3d3" x="1154" y="704.5" width="154" height="40" rx="2.5" ry="2.5" codeline="289" /><ellipse style="stroke: #181818; stroke-width: 1;" fill="#a9dcdf" cx="1169" cy="720.5" rx="11" ry="11" /><path fill="#000000" d="M 1171.19 722.266 L 1167.05 722.266 L 1166.63 723.297 L 1167.05 723.297 Q 1167.66 723.297 1167.92 723.531 Q 1168.19 723.766 1168.19 724.156 Q 1168.19 724.531 1167.92 724.766 Q 1167.66 725 1167.05 725 L 1164.75 725 Q 1164.14 725 1163.89 724.766 Q 1163.63 724.531 1163.63 724.141 Q 1163.63 723.766 1163.91 723.531 Q 1164.17 723.281 1164.8 723.297 L 1167.47 716.641 L 1166.36 716.641 Q 1165.75 716.641 1165.48 716.406 Q 1165.22 716.172 1165.22 715.781 Q 1165.22 715.406 1165.48 715.172 Q 1165.75 714.938 1166.36 714.938 L 1170.03 714.938 L 1173.42 723.297 Q 1174.02 723.297 1174.2 723.438 Q 1174.59 723.703 1174.59 724.156 Q 1174.59 724.531 1174.33 724.766 Q 1174.08 725 1173.47 725 L 1171.17 725 Q 1170.56 725 1170.3 724.766 Q 1170.03 724.531 1170.03 724.141 Q 1170.03 723.766 1170.3 723.531 Q 1170.56 723.297 1171.17 723.297 L 1171.59 723.297 L 1171.19 722.266 Z M 1170.47 720.563 L 1169.11 717.188 L 1167.73 720.563 L 1170.47 720.563 Z" /><text font-family="sans-serif" font-size="14" font-style="italic" fill="#000000" lengthAdjust="spacing" textLength="122" x="1183" y="726.2285">ShuntCompensator</text><line style="stroke: #454645; stroke-width: 1;" x1="1155" y1="736.5" x2="1307" y2="736.5" /></g><!--class LoadBreakSwitch--><g id="elem_LoadBreakSwitch"><rect id="LoadBreakSwitch" filter="url(&quot;#f1efeutlyjhhba&quot;)" style="stroke: #454645; stroke-width: 1;" fill="#ffffe0" x="434.5" y="699" width="141" height="50.7031" rx="2.5" ry="2.5" codeline="210" /><ellipse style="stroke: #181818; stroke-width: 1;" fill="#add1b2" cx="449.5" cy="720.352" rx="11" ry="11" /><path fill="#000000" d="M 452.266 716.227 Q 452.422 716.008 452.609 715.898 Q 452.797 715.789 453.016 715.789 Q 453.391 715.789 453.625 716.055 Q 453.859 716.305 453.859 716.914 L 453.859 718.367 Q 453.859 718.977 453.625 719.242 Q 453.391 719.508 453.016 719.508 Q 452.672 719.508 452.469 719.305 Q 452.266 719.117 452.156 718.602 Q 452.109 718.242 451.922 718.055 Q 451.594 717.68 450.984 717.461 Q 450.375 717.242 449.75 717.242 Q 448.984 717.242 448.344 717.57 Q 447.719 717.898 447.219 718.648 Q 446.734 719.398 446.734 720.43 L 446.734 721.523 Q 446.734 722.758 447.625 723.586 Q 448.516 724.398 450.109 724.398 Q 451.047 724.398 451.703 724.148 Q 452.094 723.992 452.516 723.555 Q 452.781 723.289 452.922 723.211 Q 453.078 723.133 453.281 723.133 Q 453.609 723.133 453.859 723.398 Q 454.125 723.648 454.125 723.992 Q 454.125 724.336 453.781 724.742 Q 453.281 725.32 452.484 725.648 Q 451.406 726.102 450.109 726.102 Q 448.594 726.102 447.391 725.477 Q 446.406 724.977 445.719 723.914 Q 445.031 722.836 445.031 721.555 L 445.031 720.398 Q 445.031 719.07 445.641 717.93 Q 446.266 716.773 447.359 716.164 Q 448.453 715.539 449.688 715.539 Q 450.422 715.539 451.063 715.711 Q 451.719 715.867 452.266 716.227 Z" /><text font-family="sans-serif" font-size="12" font-style="italic" fill="#000000" lengthAdjust="spacing" textLength="76" x="480" y="716.457">«Description»</text><text font-family="sans-serif" font-size="14" fill="#000000" lengthAdjust="spacing" textLength="109" x="463.5" y="733.627">LoadBreakSwitch</text><line style="stroke: #454645; stroke-width: 1;" x1="435.5" y1="741.703" x2="574.5" y2="741.703" /></g><!--class Location--><g id="elem_Location"><rect id="Location" filter="url(&quot;#f1efeutlyjhhba&quot;)" style="stroke: #454645; stroke-width: 1;" fill="#ffffe0" x="781" y="393" width="86" height="40" rx="2.5" ry="2.5" codeline="216" /><ellipse style="stroke: #181818; stroke-width: 1;" fill="#add1b2" cx="796" cy="409" rx="11" ry="11" /><path fill="#000000" d="M 798.766 404.875 Q 798.922 404.656 799.109 404.547 Q 799.297 404.438 799.516 404.438 Q 799.891 404.438 800.125 404.703 Q 800.359 404.953 800.359 405.563 L 800.359 407.016 Q 800.359 407.625 800.125 407.891 Q 799.891 408.156 799.516 408.156 Q 799.172 408.156 798.969 407.953 Q 798.766 407.766 798.656 407.25 Q 798.609 406.891 798.422 406.703 Q 798.094 406.328 797.484 406.109 Q 796.875 405.891 796.25 405.891 Q 795.484 405.891 794.844 406.219 Q 794.219 406.547 793.719 407.297 Q 793.234 408.047 793.234 409.078 L 793.234 410.172 Q 793.234 411.406 794.125 412.234 Q 795.016 413.047 796.609 413.047 Q 797.547 413.047 798.203 412.797 Q 798.594 412.641 799.016 412.203 Q 799.281 411.938 799.422 411.859 Q 799.578 411.781 799.781 411.781 Q 800.109 411.781 800.359 412.047 Q 800.625 412.297 800.625 412.641 Q 800.625 412.984 800.281 413.391 Q 799.781 413.969 798.984 414.297 Q 797.906 414.75 796.609 414.75 Q 795.094 414.75 793.891 414.125 Q 792.906 413.625 792.219 412.563 Q 791.531 411.484 791.531 410.203 L 791.531 409.047 Q 791.531 407.719 792.141 406.578 Q 792.766 405.422 793.859 404.813 Q 794.953 404.188 796.188 404.188 Q 796.922 404.188 797.563 404.359 Q 798.219 404.516 798.766 404.875 Z" /><text font-family="sans-serif" font-size="14" fill="#000000" lengthAdjust="spacing" textLength="54" x="810" y="414.7285">Location</text><line style="stroke: #454645; stroke-width: 1;" x1="782" y1="425" x2="866" y2="425" /></g><!--class PositionPoint--><g id="elem_PositionPoint"><rect id="PositionPoint" filter="url(&quot;#f1efeutlyjhhba&quot;)" style="stroke: #454645; stroke-width: 1;" fill="#ffffe0" x="843.5" y="186" width="287" height="110.438" rx="2.5" ry="2.5" codeline="223" /><ellipse style="stroke: #181818; stroke-width: 1;" fill="#add1b2" cx="941.75" cy="202" rx="11" ry="11" /><path fill="#000000" d="M 944.516 197.875 Q 944.672 197.656 944.859 197.547 Q 945.047 197.438 945.266 197.438 Q 945.641 197.438 945.875 197.703 Q 946.109 197.953 946.109 198.563 L 946.109 200.016 Q 946.109 200.625 945.875 200.891 Q 945.641 201.156 945.266 201.156 Q 944.922 201.156 944.719 200.953 Q 944.516 200.766 944.406 200.25 Q 944.359 199.891 944.172 199.703 Q 943.844 199.328 943.234 199.109 Q 942.625 198.891 942 198.891 Q 941.234 198.891 940.594 199.219 Q 939.969 199.547 939.469 200.297 Q 938.984 201.047 938.984 202.078 L 938.984 203.172 Q 938.984 204.406 939.875 205.234 Q 940.766 206.047 942.359 206.047 Q 943.297 206.047 943.953 205.797 Q 944.344 205.641 944.766 205.203 Q 945.031 204.938 945.172 204.859 Q 945.328 204.781 945.531 204.781 Q 945.859 204.781 946.109 205.047 Q 946.375 205.297 946.375 205.641 Q 946.375 205.984 946.031 206.391 Q 945.531 206.969 944.734 207.297 Q 943.656 207.75 942.359 207.75 Q 940.844 207.75 939.641 207.125 Q 938.656 206.625 937.969 205.563 Q 937.281 204.484 937.281 203.203 L 937.281 202.047 Q 937.281 200.719 937.891 199.578 Q 938.516 198.422 939.609 197.813 Q 940.703 197.188 941.938 197.188 Q 942.672 197.188 943.313 197.359 Q 943.969 197.516 944.516 197.875 Z" /><text font-family="sans-serif" font-size="14" fill="#000000" lengthAdjust="spacing" textLength="82" x="962.25" y="207.7285">PositionPoint</text><line style="stroke: #454645; stroke-width: 1;" x1="844.5" y1="218" x2="1129.5" y2="218" /><ellipse style="stroke: #038048; stroke-width: 1;" fill="none" cx="854.5" cy="232.305" rx="3" ry="3" /><text font-family="sans-serif" font-size="14" fill="#000000" lengthAdjust="spacing" textLength="261" x="863.5" y="236.5332">«gmdm» sequenceNumber : integer [0..1]</text><ellipse style="stroke: #038048; stroke-width: 1;" fill="none" cx="854.5" cy="249.914" rx="3" ry="3" /><text font-family="sans-serif" font-size="14" fill="#000000" lengthAdjust="spacing" textLength="123" x="863.5" y="254.1426">xPosition : string [1]</text><ellipse style="stroke: #038048; stroke-width: 1;" fill="none" cx="854.5" cy="267.523" rx="3" ry="3" /><text font-family="sans-serif" font-size="14" fill="#000000" lengthAdjust="spacing" textLength="124" x="863.5" y="271.752">yPosition : string [1]</text><ellipse style="stroke: #038048; stroke-width: 1;" fill="none" cx="854.5" cy="285.133" rx="3" ry="3" /><text font-family="sans-serif" font-size="14" fill="#000000" lengthAdjust="spacing" textLength="139" x="863.5" y="289.3613">zPosition : string [0..1]</text></g><!--class PowerElectronicsConnection--><g id="elem_PowerElectronicsConnection"><rect id="PowerElectronicsConnection" filter="url(&quot;#f1efeutlyjhhba&quot;)" style="stroke: #454645; stroke-width: 1;" fill="#ffffe0" x="1328" y="699" width="212" height="50.7031" rx="2.5" ry="2.5" codeline="234" /><ellipse style="stroke: #181818; stroke-width: 1;" fill="#add1b2" cx="1343" cy="720.352" rx="11" ry="11" /><path fill="#000000" d="M 1345.77 716.227 Q 1345.92 716.008 1346.11 715.898 Q 1346.3 715.789 1346.52 715.789 Q 1346.89 715.789 1347.13 716.055 Q 1347.36 716.305 1347.36 716.914 L 1347.36 718.367 Q 1347.36 718.977 1347.13 719.242 Q 1346.89 719.508 1346.52 719.508 Q 1346.17 719.508 1345.97 719.305 Q 1345.77 719.117 1345.66 718.602 Q 1345.61 718.242 1345.42 718.055 Q 1345.09 717.68 1344.48 717.461 Q 1343.88 717.242 1343.25 717.242 Q 1342.48 717.242 1341.84 717.57 Q 1341.22 717.898 1340.72 718.648 Q 1340.23 719.398 1340.23 720.43 L 1340.23 721.523 Q 1340.23 722.758 1341.13 723.586 Q 1342.02 724.398 1343.61 724.398 Q 1344.55 724.398 1345.2 724.148 Q 1345.59 723.992 1346.02 723.555 Q 1346.28 723.289 1346.42 723.211 Q 1346.58 723.133 1346.78 723.133 Q 1347.11 723.133 1347.36 723.398 Q 1347.63 723.648 1347.63 723.992 Q 1347.63 724.336 1347.28 724.742 Q 1346.78 725.32 1345.98 725.648 Q 1344.91 726.102 1343.61 726.102 Q 1342.09 726.102 1340.89 725.477 Q 1339.91 724.977 1339.22 723.914 Q 1338.53 722.836 1338.53 721.555 L 1338.53 720.398 Q 1338.53 719.07 1339.14 717.93 Q 1339.77 716.773 1340.86 716.164 Q 1341.95 715.539 1343.19 715.539 Q 1343.92 715.539 1344.56 715.711 Q 1345.22 715.867 1345.77 716.227 Z" /><text font-family="sans-serif" font-size="12" font-style="italic" fill="#000000" lengthAdjust="spacing" textLength="76" x="1409" y="716.457">«Description»</text><text font-family="sans-serif" font-size="14" fill="#000000" lengthAdjust="spacing" textLength="180" x="1357" y="733.627">PowerElectronicsConnection</text><line style="stroke: #454645; stroke-width: 1;" x1="1329" y1="741.703" x2="1539" y2="741.703" /></g><!--class RegulatingCondEq--><g id="elem_RegulatingCondEq"><rect id="RegulatingCondEq" filter="url(&quot;#f1efeutlyjhhba&quot;)" style="stroke: #454645; stroke-width: 1;" fill="#d3d3d3" x="1155.5" y="622.5" width="151" height="40" rx="2.5" ry="2.5" codeline="265" /><ellipse style="stroke: #181818; stroke-width: 1;" fill="#a9dcdf" cx="1170.5" cy="638.5" rx="11" ry="11" /><path fill="#000000" d="M 1172.69 640.266 L 1168.55 640.266 L 1168.13 641.297 L 1168.55 641.297 Q 1169.16 641.297 1169.42 641.531 Q 1169.69 641.766 1169.69 642.156 Q 1169.69 642.531 1169.42 642.766 Q 1169.16 643 1168.55 643 L 1166.25 643 Q 1165.64 643 1165.39 642.766 Q 1165.13 642.531 1165.13 642.141 Q 1165.13 641.766 1165.41 641.531 Q 1165.67 641.281 1166.3 641.297 L 1168.97 634.641 L 1167.86 634.641 Q 1167.25 634.641 1166.98 634.406 Q 1166.72 634.172 1166.72 633.781 Q 1166.72 633.406 1166.98 633.172 Q 1167.25 632.938 1167.86 632.938 L 1171.53 632.938 L 1174.92 641.297 Q 1175.52 641.297 1175.7 641.438 Q 1176.09 641.703 1176.09 642.156 Q 1176.09 642.531 1175.83 642.766 Q 1175.58 643 1174.97 643 L 1172.67 643 Q 1172.06 643 1171.8 642.766 Q 1171.53 642.531 1171.53 642.141 Q 1171.53 641.766 1171.8 641.531 Q 1172.06 641.297 1172.67 641.297 L 1173.09 641.297 L 1172.69 640.266 Z M 1171.97 638.563 L 1170.61 635.188 L 1169.23 638.563 L 1171.97 638.563 Z" /><text font-family="sans-serif" font-size="14" font-style="italic" fill="#000000" lengthAdjust="spacing" textLength="119" x="1184.5" y="644.2285">RegulatingCondEq</text><line style="stroke: #454645; stroke-width: 1;" x1="1156.5" y1="654.5" x2="1305.5" y2="654.5" /></g><!--class PowerTransformer--><g id="elem_PowerTransformer"><rect id="PowerTransformer" filter="url(&quot;#f1efeutlyjhhba&quot;)" style="stroke: #454645; stroke-width: 1;" fill="#ffffe0" x="945.5" y="535" width="149" height="50.7031" rx="2.5" ry="2.5" codeline="247" /><ellipse style="stroke: #181818; stroke-width: 1;" fill="#add1b2" cx="960.5" cy="556.352" rx="11" ry="11" /><path fill="#000000" d="M 963.266 552.227 Q 963.422 552.008 963.609 551.898 Q 963.797 551.789 964.016 551.789 Q 964.391 551.789 964.625 552.055 Q 964.859 552.305 964.859 552.914 L 964.859 554.367 Q 964.859 554.977 964.625 555.242 Q 964.391 555.508 964.016 555.508 Q 963.672 555.508 963.469 555.305 Q 963.266 555.117 963.156 554.602 Q 963.109 554.242 962.922 554.055 Q 962.594 553.68 961.984 553.461 Q 961.375 553.242 960.75 553.242 Q 959.984 553.242 959.344 553.57 Q 958.719 553.898 958.219 554.648 Q 957.734 555.398 957.734 556.43 L 957.734 557.523 Q 957.734 558.758 958.625 559.586 Q 959.516 560.398 961.109 560.398 Q 962.047 560.398 962.703 560.148 Q 963.094 559.992 963.516 559.555 Q 963.781 559.289 963.922 559.211 Q 964.078 559.133 964.281 559.133 Q 964.609 559.133 964.859 559.398 Q 965.125 559.648 965.125 559.992 Q 965.125 560.336 964.781 560.742 Q 964.281 561.32 963.484 561.648 Q 962.406 562.102 961.109 562.102 Q 959.594 562.102 958.391 561.477 Q 957.406 560.977 956.719 559.914 Q 956.031 558.836 956.031 557.555 L 956.031 556.398 Q 956.031 555.07 956.641 553.93 Q 957.266 552.773 958.359 552.164 Q 959.453 551.539 960.688 551.539 Q 961.422 551.539 962.063 551.711 Q 962.719 551.867 963.266 552.227 Z" /><text font-family="sans-serif" font-size="12" font-style="italic" fill="#000000" lengthAdjust="spacing" textLength="76" x="995" y="552.457">«Description»</text><text font-family="sans-serif" font-size="14" fill="#000000" lengthAdjust="spacing" textLength="117" x="974.5" y="569.627">PowerTransformer</text><line style="stroke: #454645; stroke-width: 1;" x1="946.5" y1="577.703" x2="1093.5" y2="577.703" /></g><!--class Recloser--><g id="elem_Recloser"><rect id="Recloser" filter="url(&quot;#f1efeutlyjhhba&quot;)" style="stroke: #454645; stroke-width: 1;" fill="#ffffe0" x="596" y="699" width="104" height="50.7031" rx="2.5" ry="2.5" codeline="259" /><ellipse style="stroke: #181818; stroke-width: 1;" fill="#add1b2" cx="611" cy="720.352" rx="11" ry="11" /><path fill="#000000" d="M 613.766 716.227 Q 613.922 716.008 614.109 715.898 Q 614.297 715.789 614.516 715.789 Q 614.891 715.789 615.125 716.055 Q 615.359 716.305 615.359 716.914 L 615.359 718.367 Q 615.359 718.977 615.125 719.242 Q 614.891 719.508 614.516 719.508 Q 614.172 719.508 613.969 719.305 Q 613.766 719.117 613.656 718.602 Q 613.609 718.242 613.422 718.055 Q 613.094 717.68 612.484 717.461 Q 611.875 717.242 611.25 717.242 Q 610.484 717.242 609.844 717.57 Q 609.219 717.898 608.719 718.648 Q 608.234 719.398 608.234 720.43 L 608.234 721.523 Q 608.234 722.758 609.125 723.586 Q 610.016 724.398 611.609 724.398 Q 612.547 724.398 613.203 724.148 Q 613.594 723.992 614.016 723.555 Q 614.281 723.289 614.422 723.211 Q 614.578 723.133 614.781 723.133 Q 615.109 723.133 615.359 723.398 Q 615.625 723.648 615.625 723.992 Q 615.625 724.336 615.281 724.742 Q 614.781 725.32 613.984 725.648 Q 612.906 726.102 611.609 726.102 Q 610.094 726.102 608.891 725.477 Q 607.906 724.977 607.219 723.914 Q 606.531 722.836 606.531 721.555 L 606.531 720.398 Q 606.531 719.07 607.141 717.93 Q 607.766 716.773 608.859 716.164 Q 609.953 715.539 611.188 715.539 Q 611.922 715.539 612.563 715.711 Q 613.219 715.867 613.766 716.227 Z" /><text font-family="sans-serif" font-size="12" font-style="italic" fill="#000000" lengthAdjust="spacing" textLength="76" x="623" y="716.457">«Description»</text><text font-family="sans-serif" font-size="14" fill="#000000" lengthAdjust="spacing" textLength="56" x="633" y="733.627">Recloser</text><line style="stroke: #454645; stroke-width: 1;" x1="597" y1="741.703" x2="699" y2="741.703" /></g><!--class Sectionaliser--><g id="elem_Sectionaliser"><rect id="Sectionaliser" filter="url(&quot;#f1efeutlyjhhba&quot;)" style="stroke: #454645; stroke-width: 1;" fill="#ffffe0" x="305.5" y="617" width="113" height="50.7031" rx="2.5" ry="2.5" codeline="277" /><ellipse style="stroke: #181818; stroke-width: 1;" fill="#add1b2" cx="320.5" cy="638.352" rx="11" ry="11" /><path fill="#000000" d="M 323.266 634.227 Q 323.422 634.008 323.609 633.898 Q 323.797 633.789 324.016 633.789 Q 324.391 633.789 324.625 634.055 Q 324.859 634.305 324.859 634.914 L 324.859 636.367 Q 324.859 636.977 324.625 637.242 Q 324.391 637.508 324.016 637.508 Q 323.672 637.508 323.469 637.305 Q 323.266 637.117 323.156 636.602 Q 323.109 636.242 322.922 636.055 Q 322.594 635.68 321.984 635.461 Q 321.375 635.242 320.75 635.242 Q 319.984 635.242 319.344 635.57 Q 318.719 635.898 318.219 636.648 Q 317.734 637.398 317.734 638.43 L 317.734 639.523 Q 317.734 640.758 318.625 641.586 Q 319.516 642.398 321.109 642.398 Q 322.047 642.398 322.703 642.148 Q 323.094 641.992 323.516 641.555 Q 323.781 641.289 323.922 641.211 Q 324.078 641.133 324.281 641.133 Q 324.609 641.133 324.859 641.398 Q 325.125 641.648 325.125 641.992 Q 325.125 642.336 324.781 642.742 Q 324.281 643.32 323.484 643.648 Q 322.406 644.102 321.109 644.102 Q 319.594 644.102 318.391 643.477 Q 317.406 642.977 316.719 641.914 Q 316.031 640.836 316.031 639.555 L 316.031 638.398 Q 316.031 637.07 316.641 635.93 Q 317.266 634.773 318.359 634.164 Q 319.453 633.539 320.688 633.539 Q 321.422 633.539 322.063 633.711 Q 322.719 633.867 323.266 634.227 Z" /><text font-family="sans-serif" font-size="12" font-style="italic" fill="#000000" lengthAdjust="spacing" textLength="76" x="337" y="634.457">«Description»</text><text font-family="sans-serif" font-size="14" fill="#000000" lengthAdjust="spacing" textLength="81" x="334.5" y="651.627">Sectionaliser</text><line style="stroke: #454645; stroke-width: 1;" x1="306.5" y1="659.703" x2="417.5" y2="659.703" /></g><!--class SeriesCompensator--><g id="elem_SeriesCompensator"><rect id="SeriesCompensator" filter="url(&quot;#f1efeutlyjhhba&quot;)" style="stroke: #454645; stroke-width: 1;" fill="#ffffe0" x="1114.5" y="535" width="157" height="50.7031" rx="2.5" ry="2.5" codeline="283" /><ellipse style="stroke: #181818; stroke-width: 1;" fill="#add1b2" cx="1129.5" cy="556.352" rx="11" ry="11" /><path fill="#000000" d="M 1132.27 552.227 Q 1132.42 552.008 1132.61 551.898 Q 1132.8 551.789 1133.02 551.789 Q 1133.39 551.789 1133.63 552.055 Q 1133.86 552.305 1133.86 552.914 L 1133.86 554.367 Q 1133.86 554.977 1133.63 555.242 Q 1133.39 555.508 1133.02 555.508 Q 1132.67 555.508 1132.47 555.305 Q 1132.27 555.117 1132.16 554.602 Q 1132.11 554.242 1131.92 554.055 Q 1131.59 553.68 1130.98 553.461 Q 1130.38 553.242 1129.75 553.242 Q 1128.98 553.242 1128.34 553.57 Q 1127.72 553.898 1127.22 554.648 Q 1126.73 555.398 1126.73 556.43 L 1126.73 557.523 Q 1126.73 558.758 1127.63 559.586 Q 1128.52 560.398 1130.11 560.398 Q 1131.05 560.398 1131.7 560.148 Q 1132.09 559.992 1132.52 559.555 Q 1132.78 559.289 1132.92 559.211 Q 1133.08 559.133 1133.28 559.133 Q 1133.61 559.133 1133.86 559.398 Q 1134.13 559.648 1134.13 559.992 Q 1134.13 560.336 1133.78 560.742 Q 1133.28 561.32 1132.48 561.648 Q 1131.41 562.102 1130.11 562.102 Q 1128.59 562.102 1127.39 561.477 Q 1126.41 560.977 1125.72 559.914 Q 1125.03 558.836 1125.03 557.555 L 1125.03 556.398 Q 1125.03 555.07 1125.64 553.93 Q 1126.27 552.773 1127.36 552.164 Q 1128.45 551.539 1129.69 551.539 Q 1130.42 551.539 1131.06 551.711 Q 1131.72 551.867 1132.27 552.227 Z" /><text font-family="sans-serif" font-size="12" font-style="italic" fill="#000000" lengthAdjust="spacing" textLength="76" x="1168" y="552.457">«Description»</text><text font-family="sans-serif" font-size="14" fill="#000000" lengthAdjust="spacing" textLength="125" x="1143.5" y="569.627">SeriesCompensator</text><line style="stroke: #454645; stroke-width: 1;" x1="1115.5" y1="577.703" x2="1270.5" y2="577.703" /></g><!--class Status--><g id="elem_Status"><rect id="Status" filter="url(&quot;#f1efeutlyjhhba&quot;)" style="stroke: #454645; stroke-width: 1;" fill="#d3d3d3" x="862" y="16" width="72" height="40" rx="2.5" ry="2.5" codeline="295" /><ellipse style="stroke: #181818; stroke-width: 1;" fill="#a9dcdf" cx="877" cy="32" rx="11" ry="11" /><path fill="#000000" d="M 879.188 33.7656 L 875.047 33.7656 L 874.625 34.7969 L 875.047 34.7969 Q 875.656 34.7969 875.922 35.0313 Q 876.188 35.2656 876.188 35.6563 Q 876.188 36.0313 875.922 36.2656 Q 875.656 36.5 875.047 36.5 L 872.75 36.5 Q 872.141 36.5 871.891 36.2656 Q 871.625 36.0313 871.625 35.6406 Q 871.625 35.2656 871.906 35.0313 Q 872.172 34.7813 872.797 34.7969 L 875.469 28.1406 L 874.359 28.1406 Q 873.75 28.1406 873.484 27.9063 Q 873.219 27.6719 873.219 27.2813 Q 873.219 26.9063 873.484 26.6719 Q 873.75 26.4375 874.359 26.4375 L 878.031 26.4375 L 881.422 34.7969 Q 882.016 34.7969 882.203 34.9375 Q 882.594 35.2031 882.594 35.6563 Q 882.594 36.0313 882.328 36.2656 Q 882.078 36.5 881.469 36.5 L 879.172 36.5 Q 878.563 36.5 878.297 36.2656 Q 878.031 36.0313 878.031 35.6406 Q 878.031 35.2656 878.297 35.0313 Q 878.563 34.7969 879.172 34.7969 L 879.594 34.7969 L 879.188 33.7656 Z M 878.469 32.0625 L 877.109 28.6875 L 875.734 32.0625 L 878.469 32.0625 Z" /><text font-family="sans-serif" font-size="14" font-style="italic" fill="#000000" lengthAdjust="spacing" textLength="40" x="891" y="37.7285">Status</text><line style="stroke: #454645; stroke-width: 1;" x1="863" y1="48" x2="933" y2="48" /></g><!--class SynchronousMachine--><g id="elem_SynchronousMachine"><rect id="SynchronousMachine" filter="url(&quot;#f1efeutlyjhhba&quot;)" style="stroke: #454645; stroke-width: 1;" fill="#ffffe0" x="769" y="781" width="168" height="50.7031" rx="2.5" ry="2.5" codeline="306" /><ellipse style="stroke: #181818; stroke-width: 1;" fill="#add1b2" cx="784" cy="802.352" rx="11" ry="11" /><path fill="#000000" d="M 786.766 798.227 Q 786.922 798.008 787.109 797.898 Q 787.297 797.789 787.516 797.789 Q 787.891 797.789 788.125 798.055 Q 788.359 798.305 788.359 798.914 L 788.359 800.367 Q 788.359 800.977 788.125 801.242 Q 787.891 801.508 787.516 801.508 Q 787.172 801.508 786.969 801.305 Q 786.766 801.117 786.656 800.602 Q 786.609 800.242 786.422 800.055 Q 786.094 799.68 785.484 799.461 Q 784.875 799.242 784.25 799.242 Q 783.484 799.242 782.844 799.57 Q 782.219 799.898 781.719 800.648 Q 781.234 801.398 781.234 802.43 L 781.234 803.523 Q 781.234 804.758 782.125 805.586 Q 783.016 806.398 784.609 806.398 Q 785.547 806.398 786.203 806.148 Q 786.594 805.992 787.016 805.555 Q 787.281 805.289 787.422 805.211 Q 787.578 805.133 787.781 805.133 Q 788.109 805.133 788.359 805.398 Q 788.625 805.648 788.625 805.992 Q 788.625 806.336 788.281 806.742 Q 787.781 807.32 786.984 807.648 Q 785.906 808.102 784.609 808.102 Q 783.094 808.102 781.891 807.477 Q 780.906 806.977 780.219 805.914 Q 779.531 804.836 779.531 803.555 L 779.531 802.398 Q 779.531 801.07 780.141 799.93 Q 780.766 798.773 781.859 798.164 Q 782.953 797.539 784.188 797.539 Q 784.922 797.539 785.563 797.711 Q 786.219 797.867 786.766 798.227 Z" /><text font-family="sans-serif" font-size="12" font-style="italic" fill="#000000" lengthAdjust="spacing" textLength="76" x="828" y="798.457">«Description»</text><text font-family="sans-serif" font-size="14" fill="#000000" lengthAdjust="spacing" textLength="136" x="798" y="815.627">SynchronousMachine</text><line style="stroke: #454645; stroke-width: 1;" x1="770" y1="823.703" x2="936" y2="823.703" /></g><!--class TelephoneNumber--><g id="elem_TelephoneNumber"><rect id="TelephoneNumber" filter="url(&quot;#f1efeutlyjhhba&quot;)" style="stroke: #454645; stroke-width: 1;" fill="#d3d3d3" x="448" y="316.5" width="150" height="40" rx="2.5" ry="2.5" codeline="312" /><ellipse style="stroke: #181818; stroke-width: 1;" fill="#a9dcdf" cx="463" cy="332.5" rx="11" ry="11" /><path fill="#000000" d="M 465.188 334.266 L 461.047 334.266 L 460.625 335.297 L 461.047 335.297 Q 461.656 335.297 461.922 335.531 Q 462.188 335.766 462.188 336.156 Q 462.188 336.531 461.922 336.766 Q 461.656 337 461.047 337 L 458.75 337 Q 458.141 337 457.891 336.766 Q 457.625 336.531 457.625 336.141 Q 457.625 335.766 457.906 335.531 Q 458.172 335.281 458.797 335.297 L 461.469 328.641 L 460.359 328.641 Q 459.75 328.641 459.484 328.406 Q 459.219 328.172 459.219 327.781 Q 459.219 327.406 459.484 327.172 Q 459.75 326.938 460.359 326.938 L 464.031 326.938 L 467.422 335.297 Q 468.016 335.297 468.203 335.438 Q 468.594 335.703 468.594 336.156 Q 468.594 336.531 468.328 336.766 Q 468.078 337 467.469 337 L 465.172 337 Q 464.563 337 464.297 336.766 Q 464.031 336.531 464.031 336.141 Q 464.031 335.766 464.297 335.531 Q 464.563 335.297 465.172 335.297 L 465.594 335.297 L 465.188 334.266 Z M 464.469 332.563 L 463.109 329.188 L 461.734 332.563 L 464.469 332.563 Z" /><text font-family="sans-serif" font-size="14" font-style="italic" fill="#000000" lengthAdjust="spacing" textLength="118" x="477" y="338.2285">TelephoneNumber</text><line style="stroke: #454645; stroke-width: 1;" x1="449" y1="348.5" x2="597" y2="348.5" /></g><!--reverse link Conductor to ACLineSegment--><g id="link_Conductor_ACLineSegment"><path id="Conductor-backto-ACLineSegment" style="stroke: #454645; stroke-width: 1;" fill="none" d="M 127.377 592.974 C 115.467 603.794 113.84 605.28 101.11 616.85" codeline="103" /><polygon style="stroke: #454645; stroke-width: 1;" fill="none" points="140.7,580.87 123.342,588.533 131.412,597.415 140.7,580.87" /></g><!--reverse link RotatingMachine to AsynchronousMachine--><g id="link_RotatingMachine_AsynchronousMachine"><path id="RotatingMachine-backto-AsynchronousMachine" style="stroke: #454645; stroke-width: 1;" fill="none" d="M 1045 762.87 C 1045 773.69 1045 769.28 1045 780.85" codeline="109" /><polygon style="stroke: #454645; stroke-width: 1;" fill="none" points="1045,744.87 1039,762.87 1051,762.87 1045,744.87" /></g><!--reverse link ProtectedSwitch to Breaker--><g id="link_ProtectedSwitch_Breaker"><path id="ProtectedSwitch-backto-Breaker" style="stroke: #454645; stroke-width: 1;" fill="none" d="M 455.04 671.445 C 435.62 682.305 426.83 687.23 406 698.89" codeline="115" /><polygon style="stroke: #454645; stroke-width: 1;" fill="none" points="470.75,662.66 452.111,666.209 457.968,676.682 470.75,662.66" /></g><!--reverse link Connector to BusbarSection--><g id="link_Connector_BusbarSection"><path id="Connector-backto-BusbarSection" style="stroke: #454645; stroke-width: 1;" fill="none" d="M 389.846 584.216 C 354.466 596.366 323.48 607 285.39 620.08" codeline="121" /><polygon style="stroke: #454645; stroke-width: 1;" fill="none" points="406.87,578.37 387.897,578.542 391.795,589.891 406.87,578.37" /></g><!--reverse link Equipment to ConductingEquipment--><g id="link_Equipment_ConductingEquipment"><path id="Equipment-backto-ConductingEquipment" style="stroke: #454645; stroke-width: 1;" fill="none" d="M 707 451.22 C 707 460.79 707 454.33 707 463.88" codeline="127" /><polygon style="stroke: #454645; stroke-width: 1;" fill="none" points="707,433.22 701,451.22 713,451.22 707,433.22" /></g><!--reverse link ConductingEquipment to Conductor--><g id="link_ConductingEquipment_Conductor"><path id="ConductingEquipment-backto-Conductor" style="stroke: #454645; stroke-width: 1;" fill="none" d="M 603.406 499.158 C 487.846 514.958 303.79 540.12 211.09 552.79" codeline="133" /><polygon style="stroke: #454645; stroke-width: 1;" fill="none" points="621.24,496.72 602.593,493.214 604.219,505.103 621.24,496.72" /></g><!--reverse link ConductingEquipment to Connector--><g id="link_ConductingEquipment_Connector"><path id="ConductingEquipment-backto-Connector" style="stroke: #454645; stroke-width: 1;" fill="none" d="M 625.434 509.212 C 582.584 521.932 544.39 533.26 505.09 544.93" codeline="139" /><polygon style="stroke: #454645; stroke-width: 1;" fill="none" points="642.69,504.09 623.727,503.46 627.142,514.964 642.69,504.09" /></g><!--reverse link IdentifiedObject to CoordinateSystem--><g id="link_IdentifiedObject_CoordinateSystem"><path id="IdentifiedObject-backto-CoordinateSystem" style="stroke: #454645; stroke-width: 1;" fill="none" d="M 469.49 155.61 C 439.9 163.45 425.04 170.1 398 186 C 330 225.98 302.33 238.18 272 311 C 246.59 372.01 317.29 433.69 359.69 463.9" codeline="145" /><polygon style="stroke: #454645; stroke-width: 1;" fill="none" points="486.89,151 467.954,149.81 471.027,161.41 486.89,151" /></g><!--reverse link Switch to Disconnector--><g id="link_Switch_Disconnector"><path id="Switch-backto-Disconnector" style="stroke: #454645; stroke-width: 1;" fill="none" d="M 649 598.87 C 649 609.69 649 605.28 649 616.85" codeline="151" /><polygon style="stroke: #454645; stroke-width: 1;" fill="none" points="649,580.87 643,598.87 655,598.87 649,580.87" /></g><!--reverse link IdentifiedObject to ElectronicAddress--><g id="link_IdentifiedObject_ElectronicAddress"><path id="IdentifiedObject-backto-ElectronicAddress" style="stroke: #454645; stroke-width: 1;" fill="none" d="M 522.404 183.242 C 477.834 223.782 420.55 275.88 382.12 310.84" codeline="157" /><polygon style="stroke: #454645; stroke-width: 1;" fill="none" points="535.72,171.13 518.367,178.803 526.442,187.68 535.72,171.13" /></g><!--reverse link ConductingEquipment to EnergyConnection--><g id="link_ConductingEquipment_EnergyConnection"><path id="ConductingEquipment-backto-EnergyConnection" style="stroke: #454645; stroke-width: 1;" fill="none" d="M 760.068 512.459 C 781.568 523.579 792.56 529.27 814.04 540.38" codeline="163" /><polygon style="stroke: #454645; stroke-width: 1;" fill="none" points="744.08,504.19 757.312,517.789 762.825,507.13 744.08,504.19" /></g><!--reverse link EnergyConnection to EnergyConsumer--><g id="link_EnergyConnection_EnergyConsumer"><path id="EnergyConnection-backto-EnergyConsumer" style="stroke: #454645; stroke-width: 1;" fill="none" d="M 880.136 594.334 C 889.736 605.154 889.86 605.28 900.13 616.85" codeline="169" /><polygon style="stroke: #454645; stroke-width: 1;" fill="none" points="868.19,580.87 875.648,598.316 884.624,590.352 868.19,580.87" /></g><!--reverse link EnergyConnection to EnergySource--><g id="link_EnergyConnection_EnergySource"><path id="EnergyConnection-backto-EnergySource" style="stroke: #454645; stroke-width: 1;" fill="none" d="M 921.072 586.639 C 953.792 598.379 978.91 607.39 1013 619.62" codeline="175" /><polygon style="stroke: #454645; stroke-width: 1;" fill="none" points="904.13,580.56 919.046,592.286 923.099,580.992 904.13,580.56" /></g><!--reverse link PowerSystemResource to Equipment--><g id="link_PowerSystemResource_Equipment"><path id="PowerSystemResource-backto-Equipment" style="stroke: #454645; stroke-width: 1;" fill="none" d="M 707 374.69 C 707 385.81 707 381.77 707 392.88" codeline="181" /><polygon style="stroke: #454645; stroke-width: 1;" fill="none" points="707,356.69 701,374.69 713,374.69 707,356.69" /></g><!--reverse link Switch to Fuse--><g id="link_Switch_Fuse"><path id="Switch-backto-Fuse" style="stroke: #454645; stroke-width: 1;" fill="none" d="M 695.469 590.095 C 713.049 600.915 719.88 605.12 738.76 616.74" codeline="187" /><polygon style="stroke: #454645; stroke-width: 1;" fill="none" points="680.14,580.66 692.324,595.205 698.614,584.985 680.14,580.66" /></g><!--reverse link Identity to IdentifiedObject--><g id="link_Identity_IdentifiedObject"><path id="Identity-backto-IdentifiedObject" style="stroke: #454645; stroke-width: 1;" fill="none" d="M 695.572 73.0234 C 676.102 82.7034 670.1 85.7 649.45 95.97" codeline="195" /><polygon style="stroke: #454645; stroke-width: 1;" fill="none" points="711.69,65.01 692.901,67.6508 698.243,78.396 711.69,65.01" /></g><!--reverse link ShuntCompensator to LinearShuntCompensator--><g id="link_ShuntCompensator_LinearShuntCompensator"><path id="ShuntCompensator-backto-LinearShuntCompensator" style="stroke: #454645; stroke-width: 1;" fill="none" d="M 1239.76 762.383 C 1242.33 773.203 1241.4 769.28 1244.15 780.85" codeline="207" /><polygon style="stroke: #454645; stroke-width: 1;" fill="none" points="1235.6,744.87 1233.92,763.769 1245.6,760.996 1235.6,744.87" /></g><!--reverse link ProtectedSwitch to LoadBreakSwitch--><g id="link_ProtectedSwitch_LoadBreakSwitch"><path id="ProtectedSwitch-backto-LoadBreakSwitch" style="stroke: #454645; stroke-width: 1;" fill="none" d="M 505 680.87 C 505 691.69 505 687.28 505 698.85" codeline="213" /><polygon style="stroke: #454645; stroke-width: 1;" fill="none" points="505,662.87 499,680.87 511,680.87 505,662.87" /></g><!--reverse link IdentifiedObject to Location--><g id="link_IdentifiedObject_Location"><path id="IdentifiedObject-backto-Location" style="stroke: #454645; stroke-width: 1;" fill="none" d="M 666.251 179.978 C 718.891 209.958 770.5 248.68 806 311 C 820.64 336.69 823.86 371.53 824.32 392.85" codeline="219" /><polygon style="stroke: #454645; stroke-width: 1;" fill="none" points="650.61,171.07 663.282,185.192 669.221,174.764 650.61,171.07" /></g><!--link Location to CoordinateSystem--><g id="link_Location_CoordinateSystem"><path id="Location-to-CoordinateSystem" style="stroke: #454645; stroke-width: 1;" fill="none" d="M 780.86 429.1 C 775.88 430.55 770.86 431.89 766 433 C 662.2 456.67 545.566 469.822 469.026 476.712" codeline="220" /><polygon style="stroke: #454645; stroke-width: 1;" fill="#454645" points="463.05,477.25 472.372,480.427 468.03,476.802 471.655,472.459 463.05,477.25" /><text font-family="sans-serif" font-size="13" fill="#000000" lengthAdjust="spacing" textLength="81" x="716.0177" y="454.486">+Location 0..*</text><text font-family="sans-serif" font-size="13" fill="#000000" lengthAdjust="spacing" textLength="126" x="470.9732" y="473.9025">+CoordinateSystem 1</text></g><!--reverse link Identity to PositionPoint--><g id="link_Identity_PositionPoint"><path id="Identity-backto-PositionPoint" style="stroke: #454645; stroke-width: 1;" fill="none" d="M 811.651 77.466 C 845.151 108.516 886.57 146.91 928.43 185.71" codeline="230" /><polygon style="stroke: #454645; stroke-width: 1;" fill="none" points="798.45,65.23 807.573,81.8665 815.73,73.0655 798.45,65.23" /></g><!--link PositionPoint to Location--><g id="link_PositionPoint_Location"><path id="PositionPoint-to-Location" style="stroke: #454645; stroke-width: 1;" fill="none" d="M 934.98 296.26 C 903.3 329.29 868.912 365.159 846.582 388.449" codeline="231" /><polygon style="stroke: #454645; stroke-width: 1;" fill="#454645" points="842.43,392.78 851.546,389.052 845.89,389.171 845.771,383.515 842.43,392.78" /><text font-family="sans-serif" font-size="13" fill="#000000" lengthAdjust="spacing" textLength="158" x="921" y="341.9951">«ShadowExtension,gmdm»</text><text font-family="sans-serif" font-size="13" fill="#000000" lengthAdjust="spacing" textLength="116" x="804.8838" y="317.8548">+PositionPoints 0..*</text><text font-family="sans-serif" font-size="13" fill="#000000" lengthAdjust="spacing" textLength="68" x="857.8313" y="382.0371">+Location 1</text></g><!--reverse link RegulatingCondEq to PowerElectronicsConnection--><g id="link_RegulatingCondEq_PowerElectronicsConnection"><path id="RegulatingCondEq-backto-PowerElectronicsConnection" style="stroke: #454645; stroke-width: 1;" fill="none" d="M 1296.12 669.162 C 1323.79 680.073 1342.06 687.27 1371.77 698.97" codeline="237" /><polygon style="stroke: #454645; stroke-width: 1;" fill="none" points="1279.37,662.56 1293.91,674.744 1298.32,663.581 1279.37,662.56" /></g><!--reverse link IdentifiedObject to PowerSystemResource--><g id="link_IdentifiedObject_PowerSystemResource"><path id="IdentifiedObject-backto-PowerSystemResource" style="stroke: #454645; stroke-width: 1;" fill="none" d="M 609.858 186.45 C 637.778 229.29 672.95 283.25 694.59 316.46" codeline="243" /><polygon style="stroke: #454645; stroke-width: 1;" fill="none" points="600.03,171.37 604.831,189.726 614.885,183.174 600.03,171.37" /></g><!--link PowerSystemResource to Location--><g id="link_PowerSystemResource_Location"><path id="PowerSystemResource-to-Location" style="stroke: #454645; stroke-width: 1;" fill="none" d="M 737.13 356.69 C 754.6 367.81 771.459 378.548 788.909 389.658" codeline="244" /><polygon style="stroke: #454645; stroke-width: 1;" fill="#454645" points="793.97,392.88 788.526,384.672 789.752,390.195 784.23,391.421 793.97,392.88" /><text font-family="sans-serif" font-size="13" fill="#000000" lengthAdjust="spacing" textLength="175" x="545.9947" y="378.163">+PowerSystemResources 0..*</text><text font-family="sans-serif" font-size="13" fill="#000000" lengthAdjust="spacing" textLength="83" x="724.2359" y="382.11">+Location 0..1</text></g><!--reverse link ConductingEquipment to PowerTransformer--><g id="link_ConductingEquipment_PowerTransformer"><path id="ConductingEquipment-backto-PowerTransformer" style="stroke: #454645; stroke-width: 1;" fill="none" d="M 810.316 505.949 C 853.466 515.009 888.88 523 936 535 C 939.09 535.79 942.24 536.61 945.42 537.46" codeline="250" /><polygon style="stroke: #454645; stroke-width: 1;" fill="none" points="792.7,502.25 809.083,511.821 811.549,500.077 792.7,502.25" /></g><!--reverse link Switch to ProtectedSwitch--><g id="link_Switch_ProtectedSwitch"><path id="Switch-backto-ProtectedSwitch" style="stroke: #454645; stroke-width: 1;" fill="none" d="M 598.776 589.403 C 575.976 602.073 561.95 609.86 539.21 622.49" codeline="256" /><polygon style="stroke: #454645; stroke-width: 1;" fill="none" points="614.51,580.66 595.862,584.159 601.691,594.648 614.51,580.66" /></g><!--reverse link ProtectedSwitch to Recloser--><g id="link_ProtectedSwitch_Recloser"><path id="ProtectedSwitch-backto-Recloser" style="stroke: #454645; stroke-width: 1;" fill="none" d="M 554.96 671.445 C 574.38 682.305 583.17 687.23 604 698.89" codeline="262" /><polygon style="stroke: #454645; stroke-width: 1;" fill="none" points="539.25,662.66 552.032,676.682 557.889,666.209 539.25,662.66" /></g><!--reverse link EnergyConnection to RegulatingCondEq--><g id="link_EnergyConnection_RegulatingCondEq"><path id="EnergyConnection-backto-RegulatingCondEq" style="stroke: #454645; stroke-width: 1;" fill="none" d="M 930.831 585.123 C 938.391 587.123 928.65 584.4 936 586 C 1027.76 605.94 1053.2 597.2 1145 617 C 1152.44 618.6 1160.18 620.49 1167.83 622.49" codeline="268" /><polygon style="stroke: #454645; stroke-width: 1;" fill="none" points="913.43,580.52 929.297,590.924 932.366,579.323 913.43,580.52" /></g><!--reverse link RegulatingCondEq to RotatingMachine--><g id="link_RegulatingCondEq_RotatingMachine"><path id="RegulatingCondEq-backto-RotatingMachine" style="stroke: #454645; stroke-width: 1;" fill="none" d="M 1169.92 669.774 C 1140.47 682.444 1118.56 691.86 1089.19 704.49" codeline="274" /><polygon style="stroke: #454645; stroke-width: 1;" fill="none" points="1186.45,662.66 1167.54,664.262 1172.29,675.285 1186.45,662.66" /></g><!--reverse link Switch to Sectionaliser--><g id="link_Switch_Sectionaliser"><path id="Switch-backto-Sectionaliser" style="stroke: #454645; stroke-width: 1;" fill="none" d="M 595.109 573.247 C 551.039 583.047 492.23 597.08 428 617 C 424.96 617.94 421.87 618.94 418.75 619.99" codeline="280" /><polygon style="stroke: #454645; stroke-width: 1;" fill="none" points="612.68,569.34 593.807,567.39 596.412,579.104 612.68,569.34" /></g><!--reverse link ConductingEquipment to SeriesCompensator--><g id="link_ConductingEquipment_SeriesCompensator"><path id="ConductingEquipment-backto-SeriesCompensator" style="stroke: #454645; stroke-width: 1;" fill="none" d="M 810.522 493.775 C 891.522 501.345 998.32 513.57 1105 535 C 1108.11 535.62 1111.27 536.3 1114.46 537.02" codeline="286" /><polygon style="stroke: #454645; stroke-width: 1;" fill="none" points="792.6,492.1 809.964,499.749 811.08,487.801 792.6,492.1" /></g><!--reverse link RegulatingCondEq to ShuntCompensator--><g id="link_RegulatingCondEq_ShuntCompensator"><path id="RegulatingCondEq-backto-ShuntCompensator" style="stroke: #454645; stroke-width: 1;" fill="none" d="M 1231 680.87 C 1231 693.44 1231 691.77 1231 704.31" codeline="292" /><polygon style="stroke: #454645; stroke-width: 1;" fill="none" points="1231,662.87 1225,680.87 1237,680.87 1231,662.87" /></g><!--reverse link ConductingEquipment to Switch--><g id="link_ConductingEquipment_Switch"><path id="ConductingEquipment-backto-Switch" style="stroke: #454645; stroke-width: 1;" fill="none" d="M 681 518.391 C 672.34 529.511 672.54 529.27 663.89 540.38" codeline="303" /><polygon style="stroke: #454645; stroke-width: 1;" fill="none" points="692.06,504.19 676.266,514.705 685.734,522.078 692.06,504.19" /></g><!--reverse link RotatingMachine to SynchronousMachine--><g id="link_RotatingMachine_SynchronousMachine"><path id="RotatingMachine-backto-SynchronousMachine" style="stroke: #454645; stroke-width: 1;" fill="none" d="M 982.394 751.582 C 956.324 762.442 940.04 769.23 912.08 780.89" codeline="309" /><polygon style="stroke: #454645; stroke-width: 1;" fill="none" points="999.01,744.66 980.087,746.043 984.701,757.12 999.01,744.66" /></g><!--reverse link IdentifiedObject to TelephoneNumber--><g id="link_IdentifiedObject_TelephoneNumber"><path id="IdentifiedObject-backto-TelephoneNumber" style="stroke: #454645; stroke-width: 1;" fill="none" d="M 561.689 188.775 C 550.389 231.615 536.78 283.25 528.02 316.46" codeline="315" /><polygon style="stroke: #454645; stroke-width: 1;" fill="none" points="566.28,171.37 555.888,187.244 567.491,190.305 566.28,171.37" /></g><!--SRC=[fLZRRXit47tVho3iXxHDRSk94o264C0NfGcGf8QLFXL5GUsEjAnNomt9ZQAawRTtoBreUTCbiL-adNCumyFXpAmKhuZYPCQLuakICG6fOhnCSfO1WMMbrcG9AkUPJ997v3K882iWDFkdbege74ZE1Vl2IqKB8YkQid91vboG6IW5GZzI34q2oWo4DlwaINS5BTKVxzwI3EQqBXHXalptPFHp8XzOML51bwJa6KYeo9DHsEyd48gbF-xrgULLqF91UtqwIWPFhsdwi12yBhCRNg2RurVcRu2GEStuoeH12ma3otr34oN6zMou9XSOMxlUnREBvnT3wvKGV1KplaAvMzl8_0rZJGig9VcQ4FA8tF0o5Q2WUGYIIBKkG6-VbSmSCmdlRJ92Y- -6a2kb19lL2aB6AMeFNAsheFKrKDnmo1AIedlw8MVfGmcufNDyPdPrDPDAq5GTiAlncBQabo_9yUrJ_J_SeMtViji8CB3p2D9H8O8QA68ZOkfOg5wfILalGL2joNugmOQWlRqOJIOlHhPG3cIhLZ5iKAuOsCsRED9IpG75XRE1lNOtRzxTKaLraFjfDo1eXtY9hczkRUqSo5RjOjYWTZ6mbsqne2MT0ufBPmCtql5bfOKvw89sfAXs0_jsuKB0i6eXf2zP26NhDK1i4Mk3wfMw4so9Ydo2WwJgMThXvFdaEROYIoiBi5MiC3AeLXZgoHM6MNfPaBXWGzYcf65Z5F8WkK1JchIw6TrSE-MiCsulP1ugNC8yc2UF3x6hLcVUKgzQo7doBJY0A553qinlLbUGVSITiLjfO4ci2GmdXw_xz-VJPwsqK_O5oFb5-ms1HHOS9xxXP7ULPOGshXHVKP59CztLLONpKW5pxFBDxCJdnf0nki3W4iEWalm67BzNkHu5t_BKbF7tsdPSi4Mkrb0KV8NUyQhnEIlWCiZGWFTq2NgMH4YkL7LvThPQhKxhbB9wSSh5uconp9PdYm7xxwAb7oSuQ9fDw27vwkOjAs4AYoNWxbcPumYg99aB7B1n8ilgL76HD7EQZHsFRq6cWbLjCqBrloL9po7ZVqzER8hn9zTbcWjUybg-escELiVhFSSYZRdHMZlV0Luu0eVVnk7JTJJN0kW3dfST0QglyCq2ikcAgJHl8-YmOQyEf_7QKeodMiwec3OlBBxE9Gnqjh5HdHjEwsb8qVxQSq0T9XzhLWLEjt-UK6j63LBjssaYs1XD107M80ukmhbbmSDn83NWFHJaC0ukMk-jIj_ZlQKUwBqzIkCTgmuhgOBf6ilMqWdYJOOqDcUG_Jxx1qb9vzXXjIVkmZk7DbhxlMKoZMpSocWB5qwpOJOFuThDfC2FUALOYdLHwAgwOt-EmZv_FCwWmfTwt8sUF7pTmnfu2vdei0ulrkrv1E_ShWpmLZWa4Loo5PBKGxnx7Ls24qJ32P-I5waTWg5k0fZoMgHmYFkMSRZpXcXSHwhG7L-1Q5Bt7cG3TyzXMnKAyDi0XbNeLIrXsqqmzjqtGCFqSbuQXX9VhTsDU3HtFtZL7sUR6CWbJZlc5w4_HwUdvtyPUucTtpFqLqEjcqYzkzT77GiBcQ5mMBUG63XjFEAIkhbZsybhFIqjAoWb3TGSnzng7k56Ji63wLs6bp21SPgPxjiUtpuDtkKSqEWTQXD1CsxjL_HxzDPYtq-0FVpeSVyHC-6N8t9oyX8VUZta_2ZOAUwuD6yYTvoLqInk8hIXf4sFyLWFcdeiXuyrb2cyhvSpaok8WWL-6gJkvsuDEvMqQHqtVGcO8bblnPZO4HyzjhvBIwzUHDIf_to96J0rRogJpmfp2v_zskosaGuBpwRpo6YdkOT5NPY9L3UBoSTUpoW_CjSwwtHRZYtJ1-bKnyEQT6Y5lHjpgBY75jHdupsDd90- -iqXzPly86WfvrpuZJNKwGTx6nAtljBuFTxbcs2SyX1iEgx63YUWxx3OkDKBlTv3Md2vvujC3pwWm7MSnfcJY3ic2MUt7ZtqRX6SARoRf8DntlPst3qt5eST22LyxToNL8oaVVcY1VCFmjBV1kwUEYnyuqamaF666yzudtbWodiBc7Ysz_zTX-3Hzpw5KEUVui7KqlDXdePMrfJGLTtZ1I5-NUFwzLTs-ds_Wqn_w6UGQV1Na0zGG9NpiclUXtK8bxrtTt28oVy0]--></g><g class="svg-pan-zoom-control" id="svg-pan-zoom-controls" transform="translate(1830 661) scale(0.75)"><g class="svg-pan-zoom-control" id="svg-pan-zoom-zoom-in" transform="translate(30.5 5) scale(0.015)"><rect class="svg-pan-zoom-control-background" x="0" y="0" width="1500" height="1400" /><path class="svg-pan-zoom-control-element" d="M 1280 576 v 128 q 0 26 -19 45 t -45 19 h -320 v 320 q 0 26 -19 45 t -45 19 h -128 q -26 0 -45 -19 t -19 -45 v -320 h -320 q -26 0 -45 -19 t -19 -45 v -128 q 0 -26 19 -45 t 45 -19 h 320 v -320 q 0 -26 19 -45 t 45 -19 h 128 q 26 0 45 19 t 19 45 v 320 h 320 q 26 0 45 19 t 19 45 Z M 1536 1120 v -960 q 0 -119 -84.5 -203.5 t -203.5 -84.5 h -960 q -119 0 -203.5 84.5 t -84.5 203.5 v 960 q 0 119 84.5 203.5 t 203.5 84.5 h 960 q 119 0 203.5 -84.5 t 84.5 -203.5 Z" /></g><g class="svg-pan-zoom-control" id="svg-pan-zoom-reset-pan-zoom" transform="translate(5 35) scale(0.4)"><rect class="svg-pan-zoom-control-background" x="2" y="2" width="182" height="58" /><path class="svg-pan-zoom-control-element" d="M 33.051 20.632 c -0.742 -0.406 -1.854 -0.609 -3.338 -0.609 h -7.969 v 9.281 h 7.769 c 1.543 0 2.701 -0.188 3.473 -0.562 c 1.365 -0.656 2.048 -1.953 2.048 -3.891 C 35.032 22.757 34.372 21.351 33.051 20.632 Z" /><path class="svg-pan-zoom-control-element" d="M 170.231 0.5 H 15.847 C 7.102 0.5 0.5 5.708 0.5 11.84 v 38.861 C 0.5 56.833 7.102 61.5 15.847 61.5 h 154.384 c 8.745 0 15.269 -4.667 15.269 -10.798 V 11.84 C 185.5 5.708 178.976 0.5 170.231 0.5 Z M 42.837 48.569 h -7.969 c -0.219 -0.766 -0.375 -1.383 -0.469 -1.852 c -0.188 -0.969 -0.289 -1.961 -0.305 -2.977 l -0.047 -3.211 c -0.03 -2.203 -0.41 -3.672 -1.142 -4.406 c -0.732 -0.734 -2.103 -1.102 -4.113 -1.102 h -7.05 v 13.547 h -7.055 V 14.022 h 16.524 c 2.361 0.047 4.178 0.344 5.45 0.891 c 1.272 0.547 2.351 1.352 3.234 2.414 c 0.731 0.875 1.31 1.844 1.737 2.906 s 0.64 2.273 0.64 3.633 c 0 1.641 -0.414 3.254 -1.242 4.84 s -2.195 2.707 -4.102 3.363 c 1.594 0.641 2.723 1.551 3.387 2.73 s 0.996 2.98 0.996 5.402 v 2.32 c 0 1.578 0.063 2.648 0.19 3.211 c 0.19 0.891 0.635 1.547 1.333 1.969 V 48.569 Z M 75.579 48.569 h -26.18 V 14.022 h 25.336 v 6.117 H 56.454 v 7.336 h 16.781 v 6 H 56.454 v 8.883 h 19.125 V 48.569 Z M 104.497 46.331 c -2.44 2.086 -5.887 3.129 -10.34 3.129 c -4.548 0 -8.125 -1.027 -10.731 -3.082 s -3.909 -4.879 -3.909 -8.473 h 6.891 c 0.224 1.578 0.662 2.758 1.316 3.539 c 1.196 1.422 3.246 2.133 6.15 2.133 c 1.739 0 3.151 -0.188 4.236 -0.562 c 2.058 -0.719 3.087 -2.055 3.087 -4.008 c 0 -1.141 -0.504 -2.023 -1.512 -2.648 c -1.008 -0.609 -2.607 -1.148 -4.796 -1.617 l -3.74 -0.82 c -3.676 -0.812 -6.201 -1.695 -7.576 -2.648 c -2.328 -1.594 -3.492 -4.086 -3.492 -7.477 c 0 -3.094 1.139 -5.664 3.417 -7.711 s 5.623 -3.07 10.036 -3.07 c 3.685 0 6.829 0.965 9.431 2.895 c 2.602 1.93 3.966 4.73 4.093 8.402 h -6.938 c -0.128 -2.078 -1.057 -3.555 -2.787 -4.43 c -1.154 -0.578 -2.587 -0.867 -4.301 -0.867 c -1.907 0 -3.428 0.375 -4.565 1.125 c -1.138 0.75 -1.706 1.797 -1.706 3.141 c 0 1.234 0.561 2.156 1.682 2.766 c 0.721 0.406 2.25 0.883 4.589 1.43 l 6.063 1.43 c 2.657 0.625 4.648 1.461 5.975 2.508 c 2.059 1.625 3.089 3.977 3.089 7.055 C 108.157 41.624 106.937 44.245 104.497 46.331 Z M 139.61 48.569 h -26.18 V 14.022 h 25.336 v 6.117 h -18.281 v 7.336 h 16.781 v 6 h -16.781 v 8.883 h 19.125 V 48.569 Z M 170.337 20.14 h -10.336 v 28.43 h -7.266 V 20.14 h -10.383 v -6.117 h 27.984 V 20.14 Z" /></g><g class="svg-pan-zoom-control" id="svg-pan-zoom-zoom-out" transform="translate(30.5 70) scale(0.015)"><rect class="svg-pan-zoom-control-background" x="0" y="0" width="1500" height="1400" /><path class="svg-pan-zoom-control-element" d="M 1280 576 v 128 q 0 26 -19 45 t -45 19 h -896 q -26 0 -45 -19 t -19 -45 v -128 q 0 -26 19 -45 t 45 -19 h 896 q 26 0 45 19 t 19 45 Z M 1536 1120 v -960 q 0 -119 -84.5 -203.5 t -203.5 -84.5 h -960 q -119 0 -203.5 84.5 t -84.5 203.5 v 960 q 0 119 84.5 203.5 t 203.5 84.5 h 960 q 119 0 203.5 -84.5 t 84.5 -203.5 Z" /></g></g></svg>