<svg xmlns="http://www.w3.org/2000/svg" id="plantuml" style="background: rgb(255, 255, 255); width: 1833px; height: 1441px; overflow: hidden;" preserveAspectRatio="none meet" width="1833px" height="1441px" contentStyleType="text/css" zoomAndPan="magnify" version="1.1"><defs><filter id="f1dm7mxgr3nhlj" x="-1" y="-1" width="300%" height="300%"><feGaussianBlur result="blurOut" stdDeviation="2" /><feColorMatrix result="blurOut2" in="blurOut" type="matrix" values="0 0 0 0 0 0 0 0 0 0 0 0 0 0 0 0 0 0 0.4 0" /><feOffset result="blurOut3" in="blurOut2" dx="4" dy="4" /><feBlend in="SourceGraphic" in2="blurOut3" mode="normal" /></filter><style id="svg-pan-zoom-controls-styles" type="text/css">.svg-pan-zoom-control { cursor: pointer; fill: black; fill-opacity: 0.333; } .svg-pan-zoom-control:hover { fill-opacity: 0.8; } .svg-pan-zoom-control-background { fill: white; fill-opacity: 0.5; } .svg-pan-zoom-control-background { fill-opacity: 0.8; }</style></defs><g class="svg-pan-zoom_viewport" style="transform: matrix(0.471426, 0, 0, 0.471426, 511.417, 18.9381);" transform="matrix(0.471426 0 0 0.471426 511.417 18.9381)"><g id="elem_AssetNote"><path filter="url(&quot;#f1dm7mxgr3nhlj&quot;)" style="stroke: #454645; stroke-width: 1.5;" fill="#ffffe0" d="M 6 46.5 L 6 86.7188 A 2.5 2.5 0 0 0 8.5 89.2188 L 328.5 89.2188 A 2.5 2.5 0 0 0 331 86.7188 L 331 54 L 321 44 L 8.5 44 A 2.5 2.5 0 0 0 6 46.5" /><path style="stroke: #454645; stroke-width: 1;" fill="#ffffe0" d="M 321 44 L 321 52.75 A 1.25 1.25 0 0 0 322.25 54 L 331 54 L 321 44" /><text font-family="sans-serif" font-size="14" fill="#000000" lengthAdjust="spacing" textLength="83" x="12" y="63.5332">Profile: Asset</text><text font-family="sans-serif" font-size="14" fill="#000000" lengthAdjust="spacing" textLength="304" x="12" y="81.1426">Namespace: http://www.ucaiug.org/gmdm/asset#</text></g><!--class AssetInfo--><g id="elem_AssetInfo"><rect id="AssetInfo" filter="url(&quot;#f1dm7mxgr3nhlj&quot;)" style="stroke: #454645; stroke-width: 1;" fill="#d3d3d3" x="738" y="594.5" width="91" height="40" rx="2.5" ry="2.5" codeline="100" /><ellipse style="stroke: #181818; stroke-width: 1;" fill="#a9dcdf" cx="753" cy="610.5" rx="11" ry="11" /><path fill="#000000" d="M 755.188 612.266 L 751.047 612.266 L 750.625 613.297 L 751.047 613.297 Q 751.656 613.297 751.922 613.531 Q 752.188 613.766 752.188 614.156 Q 752.188 614.531 751.922 614.766 Q 751.656 615 751.047 615 L 748.75 615 Q 748.141 615 747.891 614.766 Q 747.625 614.531 747.625 614.141 Q 747.625 613.766 747.906 613.531 Q 748.172 613.281 748.797 613.297 L 751.469 606.641 L 750.359 606.641 Q 749.75 606.641 749.484 606.406 Q 749.219 606.172 749.219 605.781 Q 749.219 605.406 749.484 605.172 Q 749.75 604.938 750.359 604.938 L 754.031 604.938 L 757.422 613.297 Q 758.016 613.297 758.203 613.438 Q 758.594 613.703 758.594 614.156 Q 758.594 614.531 758.328 614.766 Q 758.078 615 757.469 615 L 755.172 615 Q 754.563 615 754.297 614.766 Q 754.031 614.531 754.031 614.141 Q 754.031 613.766 754.297 613.531 Q 754.563 613.297 755.172 613.297 L 755.594 613.297 L 755.188 612.266 Z M 754.469 610.563 L 753.109 607.188 L 751.734 610.563 L 754.469 610.563 Z" /><text font-family="sans-serif" font-size="14" font-style="italic" fill="#000000" lengthAdjust="spacing" textLength="59" x="767" y="616.2285">AssetInfo</text><line style="stroke: #454645; stroke-width: 1;" x1="739" y1="626.5" x2="828" y2="626.5" /></g><!--class IdentifiedObject--><g id="elem_IdentifiedObject"><rect id="IdentifiedObject" filter="url(&quot;#f1dm7mxgr3nhlj&quot;)" style="stroke: #454645; stroke-width: 1;" fill="#d3d3d3" x="694.5" y="314" width="178" height="75.2188" rx="2.5" ry="2.5" codeline="119" /><ellipse style="stroke: #181818; stroke-width: 1;" fill="#a9dcdf" cx="730.65" cy="330" rx="11" ry="11" /><path fill="#000000" d="M 732.838 331.766 L 728.697 331.766 L 728.275 332.797 L 728.697 332.797 Q 729.306 332.797 729.572 333.031 Q 729.838 333.266 729.838 333.656 Q 729.838 334.031 729.572 334.266 Q 729.306 334.5 728.697 334.5 L 726.4 334.5 Q 725.791 334.5 725.541 334.266 Q 725.275 334.031 725.275 333.641 Q 725.275 333.266 725.556 333.031 Q 725.822 332.781 726.447 332.797 L 729.119 326.141 L 728.009 326.141 Q 727.4 326.141 727.134 325.906 Q 726.869 325.672 726.869 325.281 Q 726.869 324.906 727.134 324.672 Q 727.4 324.438 728.009 324.438 L 731.681 324.438 L 735.072 332.797 Q 735.666 332.797 735.853 332.938 Q 736.244 333.203 736.244 333.656 Q 736.244 334.031 735.978 334.266 Q 735.728 334.5 735.119 334.5 L 732.822 334.5 Q 732.213 334.5 731.947 334.266 Q 731.681 334.031 731.681 333.641 Q 731.681 333.266 731.947 333.031 Q 732.213 332.797 732.822 332.797 L 733.244 332.797 L 732.838 331.766 Z M 732.119 330.063 L 730.759 326.688 L 729.384 330.063 L 732.119 330.063 Z" /><text font-family="sans-serif" font-size="14" font-style="italic" fill="#000000" lengthAdjust="spacing" textLength="99" x="749.35" y="335.7285">IdentifiedObject</text><line style="stroke: #454645; stroke-width: 1;" x1="695.5" y1="346" x2="871.5" y2="346" /><ellipse style="stroke: #038048; stroke-width: 1;" fill="none" cx="705.5" cy="360.305" rx="3" ry="3" /><text font-family="sans-serif" font-size="14" fill="#000000" lengthAdjust="spacing" textLength="152" x="714.5" y="364.5332">description : string [0..1]</text><ellipse style="stroke: #038048; stroke-width: 1;" fill="none" cx="705.5" cy="377.914" rx="3" ry="3" /><text font-family="sans-serif" font-size="14" fill="#000000" lengthAdjust="spacing" textLength="118" x="714.5" y="382.1426">name : string [0..1]</text></g><!--class ConductingAssetInfo--><g id="elem_ConductingAssetInfo"><rect id="ConductingAssetInfo" filter="url(&quot;#f1dm7mxgr3nhlj&quot;)" style="stroke: #454645; stroke-width: 1;" fill="#d3d3d3" x="822" y="827" width="203" height="57.6094" rx="2.5" ry="2.5" codeline="106" /><ellipse style="stroke: #181818; stroke-width: 1;" fill="#a9dcdf" cx="855" cy="843" rx="11" ry="11" /><path fill="#000000" d="M 857.188 844.766 L 853.047 844.766 L 852.625 845.797 L 853.047 845.797 Q 853.656 845.797 853.922 846.031 Q 854.188 846.266 854.188 846.656 Q 854.188 847.031 853.922 847.266 Q 853.656 847.5 853.047 847.5 L 850.75 847.5 Q 850.141 847.5 849.891 847.266 Q 849.625 847.031 849.625 846.641 Q 849.625 846.266 849.906 846.031 Q 850.172 845.781 850.797 845.797 L 853.469 839.141 L 852.359 839.141 Q 851.75 839.141 851.484 838.906 Q 851.219 838.672 851.219 838.281 Q 851.219 837.906 851.484 837.672 Q 851.75 837.438 852.359 837.438 L 856.031 837.438 L 859.422 845.797 Q 860.016 845.797 860.203 845.938 Q 860.594 846.203 860.594 846.656 Q 860.594 847.031 860.328 847.266 Q 860.078 847.5 859.469 847.5 L 857.172 847.5 Q 856.563 847.5 856.297 847.266 Q 856.031 847.031 856.031 846.641 Q 856.031 846.266 856.297 846.031 Q 856.563 845.797 857.172 845.797 L 857.594 845.797 L 857.188 844.766 Z M 856.469 843.063 L 855.109 839.688 L 853.734 843.063 L 856.469 843.063 Z" /><text font-family="sans-serif" font-size="14" font-style="italic" fill="#000000" lengthAdjust="spacing" textLength="131" x="873" y="848.7285">ConductingAssetInfo</text><line style="stroke: #454645; stroke-width: 1;" x1="823" y1="859" x2="1024" y2="859" /><ellipse style="stroke: #038048; stroke-width: 1;" fill="none" cx="833" cy="873.305" rx="3" ry="3" /><text font-family="sans-serif" font-size="14" fill="#000000" lengthAdjust="spacing" textLength="177" x="842" y="877.5332">ratedVoltage : Voltage [0..1]</text></g><!--class Equipment--><g id="elem_Equipment"><rect id="Equipment" filter="url(&quot;#f1dm7mxgr3nhlj&quot;)" style="stroke: #454645; stroke-width: 1;" fill="#d3d3d3" x="354" y="836" width="99" height="40" rx="2.5" ry="2.5" codeline="113" /><ellipse style="stroke: #181818; stroke-width: 1;" fill="#a9dcdf" cx="369" cy="852" rx="11" ry="11" /><path fill="#000000" d="M 371.188 853.766 L 367.047 853.766 L 366.625 854.797 L 367.047 854.797 Q 367.656 854.797 367.922 855.031 Q 368.188 855.266 368.188 855.656 Q 368.188 856.031 367.922 856.266 Q 367.656 856.5 367.047 856.5 L 364.75 856.5 Q 364.141 856.5 363.891 856.266 Q 363.625 856.031 363.625 855.641 Q 363.625 855.266 363.906 855.031 Q 364.172 854.781 364.797 854.797 L 367.469 848.141 L 366.359 848.141 Q 365.75 848.141 365.484 847.906 Q 365.219 847.672 365.219 847.281 Q 365.219 846.906 365.484 846.672 Q 365.75 846.438 366.359 846.438 L 370.031 846.438 L 373.422 854.797 Q 374.016 854.797 374.203 854.938 Q 374.594 855.203 374.594 855.656 Q 374.594 856.031 374.328 856.266 Q 374.078 856.5 373.469 856.5 L 371.172 856.5 Q 370.563 856.5 370.297 856.266 Q 370.031 856.031 370.031 855.641 Q 370.031 855.266 370.297 855.031 Q 370.563 854.797 371.172 854.797 L 371.594 854.797 L 371.188 853.766 Z M 370.469 852.063 L 369.109 848.688 L 367.734 852.063 L 370.469 852.063 Z" /><text font-family="sans-serif" font-size="14" font-style="italic" fill="#000000" lengthAdjust="spacing" textLength="67" x="383" y="857.7285">Equipment</text><line style="stroke: #454645; stroke-width: 1;" x1="355" y1="868" x2="452" y2="868" /></g><!--class PowerSystemResource--><g id="elem_PowerSystemResource"><rect id="PowerSystemResource" filter="url(&quot;#f1dm7mxgr3nhlj&quot;)" style="stroke: #454645; stroke-width: 1;" fill="#d3d3d3" x="408.5" y="594.5" width="178" height="40" rx="2.5" ry="2.5" codeline="152" /><ellipse style="stroke: #181818; stroke-width: 1;" fill="#a9dcdf" cx="423.5" cy="610.5" rx="11" ry="11" /><path fill="#000000" d="M 425.688 612.266 L 421.547 612.266 L 421.125 613.297 L 421.547 613.297 Q 422.156 613.297 422.422 613.531 Q 422.688 613.766 422.688 614.156 Q 422.688 614.531 422.422 614.766 Q 422.156 615 421.547 615 L 419.25 615 Q 418.641 615 418.391 614.766 Q 418.125 614.531 418.125 614.141 Q 418.125 613.766 418.406 613.531 Q 418.672 613.281 419.297 613.297 L 421.969 606.641 L 420.859 606.641 Q 420.25 606.641 419.984 606.406 Q 419.719 606.172 419.719 605.781 Q 419.719 605.406 419.984 605.172 Q 420.25 604.938 420.859 604.938 L 424.531 604.938 L 427.922 613.297 Q 428.516 613.297 428.703 613.438 Q 429.094 613.703 429.094 614.156 Q 429.094 614.531 428.828 614.766 Q 428.578 615 427.969 615 L 425.672 615 Q 425.063 615 424.797 614.766 Q 424.531 614.531 424.531 614.141 Q 424.531 613.766 424.797 613.531 Q 425.063 613.297 425.672 613.297 L 426.094 613.297 L 425.688 612.266 Z M 424.969 610.563 L 423.609 607.188 L 422.234 610.563 L 424.969 610.563 Z" /><text font-family="sans-serif" font-size="14" font-style="italic" fill="#000000" lengthAdjust="spacing" textLength="146" x="437.5" y="616.2285">PowerSystemResource</text><line style="stroke: #454645; stroke-width: 1;" x1="409.5" y1="626.5" x2="585.5" y2="626.5" /></g><!--class Identity--><g id="elem_Identity"><rect id="Identity" filter="url(&quot;#f1dm7mxgr3nhlj&quot;)" style="stroke: #454645; stroke-width: 1;" fill="#d3d3d3" x="710" y="37.5" width="147" height="57.6094" rx="2.5" ry="2.5" codeline="127" /><ellipse style="stroke: #181818; stroke-width: 1;" fill="#a9dcdf" cx="756.25" cy="53.5" rx="11" ry="11" /><path fill="#000000" d="M 758.438 55.2656 L 754.297 55.2656 L 753.875 56.2969 L 754.297 56.2969 Q 754.906 56.2969 755.172 56.5313 Q 755.438 56.7656 755.438 57.1563 Q 755.438 57.5313 755.172 57.7656 Q 754.906 58 754.297 58 L 752 58 Q 751.391 58 751.141 57.7656 Q 750.875 57.5313 750.875 57.1406 Q 750.875 56.7656 751.156 56.5313 Q 751.422 56.2813 752.047 56.2969 L 754.719 49.6406 L 753.609 49.6406 Q 753 49.6406 752.734 49.4063 Q 752.469 49.1719 752.469 48.7813 Q 752.469 48.4063 752.734 48.1719 Q 753 47.9375 753.609 47.9375 L 757.281 47.9375 L 760.672 56.2969 Q 761.266 56.2969 761.453 56.4375 Q 761.844 56.7031 761.844 57.1563 Q 761.844 57.5313 761.578 57.7656 Q 761.328 58 760.719 58 L 758.422 58 Q 757.813 58 757.547 57.7656 Q 757.281 57.5313 757.281 57.1406 Q 757.281 56.7656 757.547 56.5313 Q 757.813 56.2969 758.422 56.2969 L 758.844 56.2969 L 758.438 55.2656 Z M 757.719 53.5625 L 756.359 50.1875 L 754.984 53.5625 L 757.719 53.5625 Z" /><text font-family="sans-serif" font-size="14" font-style="italic" fill="#000000" lengthAdjust="spacing" textLength="46" x="776.75" y="59.2285">Identity</text><line style="stroke: #454645; stroke-width: 1;" x1="711" y1="69.5" x2="856" y2="69.5" /><ellipse style="stroke: #038048; stroke-width: 1;" fill="none" cx="721" cy="83.8047" rx="3" ry="3" /><text font-family="sans-serif" font-size="14" fill="#000000" lengthAdjust="spacing" textLength="121" x="730" y="88.0332">identifier : string [1]</text></g><!--class NoLoadTest--><g id="elem_NoLoadTest"><rect id="NoLoadTest" filter="url(&quot;#f1dm7mxgr3nhlj&quot;)" style="stroke: #454645; stroke-width: 1;" fill="#ffffe0" x="1145.5" y="792" width="258" height="128.047" rx="2.5" ry="2.5" codeline="133" /><ellipse style="stroke: #181818; stroke-width: 1;" fill="#add1b2" cx="1231.75" cy="808" rx="11" ry="11" /><path fill="#000000" d="M 1234.52 803.875 Q 1234.67 803.656 1234.86 803.547 Q 1235.05 803.438 1235.27 803.438 Q 1235.64 803.438 1235.88 803.703 Q 1236.11 803.953 1236.11 804.563 L 1236.11 806.016 Q 1236.11 806.625 1235.88 806.891 Q 1235.64 807.156 1235.27 807.156 Q 1234.92 807.156 1234.72 806.953 Q 1234.52 806.766 1234.41 806.25 Q 1234.36 805.891 1234.17 805.703 Q 1233.84 805.328 1233.23 805.109 Q 1232.63 804.891 1232 804.891 Q 1231.23 804.891 1230.59 805.219 Q 1229.97 805.547 1229.47 806.297 Q 1228.98 807.047 1228.98 808.078 L 1228.98 809.172 Q 1228.98 810.406 1229.88 811.234 Q 1230.77 812.047 1232.36 812.047 Q 1233.3 812.047 1233.95 811.797 Q 1234.34 811.641 1234.77 811.203 Q 1235.03 810.938 1235.17 810.859 Q 1235.33 810.781 1235.53 810.781 Q 1235.86 810.781 1236.11 811.047 Q 1236.38 811.297 1236.38 811.641 Q 1236.38 811.984 1236.03 812.391 Q 1235.53 812.969 1234.73 813.297 Q 1233.66 813.75 1232.36 813.75 Q 1230.84 813.75 1229.64 813.125 Q 1228.66 812.625 1227.97 811.563 Q 1227.28 810.484 1227.28 809.203 L 1227.28 808.047 Q 1227.28 806.719 1227.89 805.578 Q 1228.52 804.422 1229.61 803.813 Q 1230.7 803.188 1231.94 803.188 Q 1232.67 803.188 1233.31 803.359 Q 1233.97 803.516 1234.52 803.875 Z" /><text font-family="sans-serif" font-size="14" fill="#000000" lengthAdjust="spacing" textLength="77" x="1252.25" y="813.7285">NoLoadTest</text><line style="stroke: #454645; stroke-width: 1;" x1="1146.5" y1="824" x2="1402.5" y2="824" /><ellipse style="stroke: #038048; stroke-width: 1;" fill="none" cx="1156.5" cy="838.305" rx="3" ry="3" /><text font-family="sans-serif" font-size="14" fill="#000000" lengthAdjust="spacing" textLength="232" x="1165.5" y="842.5332">energisedEndVoltage : Voltage [0..1]</text><ellipse style="stroke: #038048; stroke-width: 1;" fill="none" cx="1156.5" cy="855.914" rx="3" ry="3" /><text font-family="sans-serif" font-size="14" fill="#000000" lengthAdjust="spacing" textLength="195" x="1165.5" y="860.1426">excitingCurrent : PerCent [0..1]</text><ellipse style="stroke: #038048; stroke-width: 1;" fill="none" cx="1156.5" cy="873.523" rx="3" ry="3" /><text font-family="sans-serif" font-size="14" fill="#000000" lengthAdjust="spacing" textLength="224" x="1165.5" y="877.752">excitingCurrentZero : PerCent [0..1]</text><ellipse style="stroke: #038048; stroke-width: 1;" fill="none" cx="1156.5" cy="891.133" rx="3" ry="3" /><text font-family="sans-serif" font-size="14" fill="#000000" lengthAdjust="spacing" textLength="173" x="1165.5" y="895.3613">loss : KiloActivePower [0..1]</text><ellipse style="stroke: #038048; stroke-width: 1;" fill="none" cx="1156.5" cy="908.742" rx="3" ry="3" /><text font-family="sans-serif" font-size="14" fill="#000000" lengthAdjust="spacing" textLength="202" x="1165.5" y="912.9707">lossZero : KiloActivePower [0..1]</text></g><!--class TransformerTest--><g id="elem_TransformerTest"><rect id="TransformerTest" filter="url(&quot;#f1dm7mxgr3nhlj&quot;)" style="stroke: #454645; stroke-width: 1;" fill="#d3d3d3" x="1162" y="577" width="225" height="75.2188" rx="2.5" ry="2.5" codeline="200" /><ellipse style="stroke: #181818; stroke-width: 1;" fill="#a9dcdf" cx="1217.25" cy="593" rx="11" ry="11" /><path fill="#000000" d="M 1219.44 594.766 L 1215.3 594.766 L 1214.88 595.797 L 1215.3 595.797 Q 1215.91 595.797 1216.17 596.031 Q 1216.44 596.266 1216.44 596.656 Q 1216.44 597.031 1216.17 597.266 Q 1215.91 597.5 1215.3 597.5 L 1213 597.5 Q 1212.39 597.5 1212.14 597.266 Q 1211.88 597.031 1211.88 596.641 Q 1211.88 596.266 1212.16 596.031 Q 1212.42 595.781 1213.05 595.797 L 1215.72 589.141 L 1214.61 589.141 Q 1214 589.141 1213.73 588.906 Q 1213.47 588.672 1213.47 588.281 Q 1213.47 587.906 1213.73 587.672 Q 1214 587.438 1214.61 587.438 L 1218.28 587.438 L 1221.67 595.797 Q 1222.27 595.797 1222.45 595.938 Q 1222.84 596.203 1222.84 596.656 Q 1222.84 597.031 1222.58 597.266 Q 1222.33 597.5 1221.72 597.5 L 1219.42 597.5 Q 1218.81 597.5 1218.55 597.266 Q 1218.28 597.031 1218.28 596.641 Q 1218.28 596.266 1218.55 596.031 Q 1218.81 595.797 1219.42 595.797 L 1219.84 595.797 L 1219.44 594.766 Z M 1218.72 593.063 L 1217.36 589.688 L 1215.98 593.063 L 1218.72 593.063 Z" /><text font-family="sans-serif" font-size="14" font-style="italic" fill="#000000" lengthAdjust="spacing" textLength="106" x="1237.75" y="598.7285">TransformerTest</text><line style="stroke: #454645; stroke-width: 1;" x1="1163" y1="609" x2="1386" y2="609" /><ellipse style="stroke: #038048; stroke-width: 1;" fill="none" cx="1173" cy="623.305" rx="3" ry="3" /><text font-family="sans-serif" font-size="14" fill="#000000" lengthAdjust="spacing" textLength="199" x="1182" y="627.5332">basePower : ApparentPower [1]</text><ellipse style="stroke: #038048; stroke-width: 1;" fill="none" cx="1173" cy="640.914" rx="3" ry="3" /><text font-family="sans-serif" font-size="14" fill="#000000" lengthAdjust="spacing" textLength="191" x="1182" y="645.1426">temperature : Temperature [1]</text></g><!--class TransformerEndInfo--><g id="elem_TransformerEndInfo"><rect id="TransformerEndInfo" filter="url(&quot;#f1dm7mxgr3nhlj&quot;)" style="stroke: #454645; stroke-width: 1;" fill="#ffffe0" x="1127.5" y="1060" width="294" height="180.875" rx="2.5" ry="2.5" codeline="172" /><ellipse style="stroke: #181818; stroke-width: 1;" fill="#add1b2" cx="1207.25" cy="1076" rx="11" ry="11" /><path fill="#000000" d="M 1210.02 1071.88 Q 1210.17 1071.66 1210.36 1071.55 Q 1210.55 1071.44 1210.77 1071.44 Q 1211.14 1071.44 1211.38 1071.7 Q 1211.61 1071.95 1211.61 1072.56 L 1211.61 1074.02 Q 1211.61 1074.63 1211.38 1074.89 Q 1211.14 1075.16 1210.77 1075.16 Q 1210.42 1075.16 1210.22 1074.95 Q 1210.02 1074.77 1209.91 1074.25 Q 1209.86 1073.89 1209.67 1073.7 Q 1209.34 1073.33 1208.73 1073.11 Q 1208.13 1072.89 1207.5 1072.89 Q 1206.73 1072.89 1206.09 1073.22 Q 1205.47 1073.55 1204.97 1074.3 Q 1204.48 1075.05 1204.48 1076.08 L 1204.48 1077.17 Q 1204.48 1078.41 1205.38 1079.23 Q 1206.27 1080.05 1207.86 1080.05 Q 1208.8 1080.05 1209.45 1079.8 Q 1209.84 1079.64 1210.27 1079.2 Q 1210.53 1078.94 1210.67 1078.86 Q 1210.83 1078.78 1211.03 1078.78 Q 1211.36 1078.78 1211.61 1079.05 Q 1211.88 1079.3 1211.88 1079.64 Q 1211.88 1079.98 1211.53 1080.39 Q 1211.03 1080.97 1210.23 1081.3 Q 1209.16 1081.75 1207.86 1081.75 Q 1206.34 1081.75 1205.14 1081.13 Q 1204.16 1080.63 1203.47 1079.56 Q 1202.78 1078.48 1202.78 1077.2 L 1202.78 1076.05 Q 1202.78 1074.72 1203.39 1073.58 Q 1204.02 1072.42 1205.11 1071.81 Q 1206.2 1071.19 1207.44 1071.19 Q 1208.17 1071.19 1208.81 1071.36 Q 1209.47 1071.52 1210.02 1071.88 Z" /><text font-family="sans-serif" font-size="14" fill="#000000" lengthAdjust="spacing" textLength="126" x="1227.75" y="1081.7285">TransformerEndInfo</text><line style="stroke: #454645; stroke-width: 1;" x1="1128.5" y1="1092" x2="1420.5" y2="1092" /><ellipse style="stroke: #038048; stroke-width: 1;" fill="none" cx="1138.5" cy="1106.3" rx="3" ry="3" /><text font-family="sans-serif" font-size="14" fill="#000000" lengthAdjust="spacing" textLength="268" x="1147.5" y="1110.5332">connectionKind : WindingConnection [0..1]</text><ellipse style="stroke: #038048; stroke-width: 1;" fill="none" cx="1138.5" cy="1123.91" rx="3" ry="3" /><text font-family="sans-serif" font-size="14" fill="#000000" lengthAdjust="spacing" textLength="224" x="1147.5" y="1128.1426">emergencyS : ApparentPower [0..1]</text><ellipse style="stroke: #038048; stroke-width: 1;" fill="none" cx="1138.5" cy="1141.52" rx="3" ry="3" /><text font-family="sans-serif" font-size="14" fill="#000000" lengthAdjust="spacing" textLength="149" x="1147.5" y="1145.752">endNumber : integer [1]</text><ellipse style="stroke: #038048; stroke-width: 1;" fill="none" cx="1138.5" cy="1159.13" rx="3" ry="3" /><text font-family="sans-serif" font-size="14" fill="#000000" lengthAdjust="spacing" textLength="165" x="1147.5" y="1163.3613">insulationU : Voltage [0..1]</text><ellipse style="stroke: #038048; stroke-width: 1;" fill="none" cx="1138.5" cy="1176.74" rx="3" ry="3" /><text font-family="sans-serif" font-size="14" fill="#000000" lengthAdjust="spacing" textLength="202" x="1147.5" y="1180.9707">phaseAngleClock : integer [0..1]</text><ellipse style="stroke: #038048; stroke-width: 1;" fill="none" cx="1138.5" cy="1194.35" rx="3" ry="3" /><text font-family="sans-serif" font-size="14" fill="#000000" lengthAdjust="spacing" textLength="123" x="1147.5" y="1198.5801">r : Resistance [0..1]</text><ellipse style="stroke: #038048; stroke-width: 1;" fill="none" cx="1138.5" cy="1211.96" rx="3" ry="3" /><text font-family="sans-serif" font-size="14" fill="#000000" lengthAdjust="spacing" textLength="187" x="1147.5" y="1216.1895">ratedS : ApparentPower [0..1]</text><ellipse style="stroke: #038048; stroke-width: 1;" fill="none" cx="1138.5" cy="1229.57" rx="3" ry="3" /><text font-family="sans-serif" font-size="14" fill="#000000" lengthAdjust="spacing" textLength="219" x="1147.5" y="1233.7988">shortTermS : ApparentPower [0..1]</text></g><!--class PhaseCountKind--><g id="elem_PhaseCountKind"><rect id="PhaseCountKind" filter="url(&quot;#f1dm7mxgr3nhlj&quot;)" style="stroke: #454645; stroke-width: 1;" fill="#90ee90" x="451.5" y="7" width="138" height="118.625" rx="2.5" ry="2.5" codeline="145" /><ellipse style="stroke: #181818; stroke-width: 1;" fill="#eb937f" cx="466.5" cy="35.8984" rx="11" ry="11" /><path fill="#000000" d="M 465.359 36.6953 L 465.359 39.1953 L 469.688 39.1953 L 469.688 38.2734 Q 469.688 37.6641 469.922 37.3984 Q 470.172 37.1328 470.547 37.1328 Q 470.922 37.1328 471.156 37.3984 Q 471.391 37.6641 471.391 38.2734 L 471.391 40.8984 L 463.391 40.8984 Q 462.766 40.8984 462.5 40.6641 Q 462.25 40.4297 462.25 40.0391 Q 462.25 39.6641 462.516 39.4297 Q 462.781 39.1953 463.391 39.1953 L 463.656 39.1953 L 463.656 32.5391 L 463.391 32.5391 Q 462.766 32.5391 462.5 32.3047 Q 462.25 32.0703 462.25 31.6797 Q 462.25 31.3047 462.5 31.0703 Q 462.766 30.8359 463.391 30.8359 L 471.016 30.8359 L 471.016 33.4297 Q 471.016 34.0391 470.781 34.3047 Q 470.563 34.5547 470.172 34.5547 Q 469.797 34.5547 469.563 34.3047 Q 469.328 34.0391 469.328 33.4297 L 469.328 32.5391 L 465.359 32.5391 L 465.359 34.9922 L 466.844 34.9922 Q 466.844 34.3359 466.969 34.1484 Q 467.234 33.7422 467.703 33.7422 Q 468.078 33.7422 468.313 34.0078 Q 468.547 34.2578 468.547 34.8672 L 468.547 36.8359 Q 468.547 37.3828 468.422 37.5703 Q 468.156 37.9609 467.703 37.9609 Q 467.234 37.9609 466.969 37.5547 Q 466.844 37.3672 466.844 36.6953 L 465.359 36.6953 Z" /><text font-family="sans-serif" font-size="12" font-style="italic" fill="#000000" lengthAdjust="spacing" textLength="84" x="491.5" y="24.457">«enumeration»</text><text font-family="sans-serif" font-size="12" font-style="italic" fill="#000000" lengthAdjust="spacing" textLength="60" x="503.5" y="39.5508">«Attribute»</text><text font-family="sans-serif" font-size="14" fill="#000000" lengthAdjust="spacing" textLength="106" x="480.5" y="56.7207">PhaseCountKind</text><line style="stroke: #454645; stroke-width: 1;" x1="452.5" y1="64.7969" x2="588.5" y2="64.7969" /><text font-family="sans-serif" font-size="14" fill="#000000" lengthAdjust="spacing" textLength="33" x="457.5" y="83.3301">other</text><text font-family="sans-serif" font-size="14" fill="#000000" lengthAdjust="spacing" textLength="77" x="457.5" y="100.9395">singlePhase</text><text font-family="sans-serif" font-size="14" fill="#000000" lengthAdjust="spacing" textLength="73" x="457.5" y="118.5488">threePhase</text></g><!--class ShortCircuitTest--><g id="elem_ShortCircuitTest"><rect id="ShortCircuitTest" filter="url(&quot;#f1dm7mxgr3nhlj&quot;)" style="stroke: #454645; stroke-width: 1;" fill="#ffffe0" x="1524" y="783" width="291" height="145.656" rx="2.5" ry="2.5" codeline="158" /><ellipse style="stroke: #181818; stroke-width: 1;" fill="#add1b2" cx="1614.25" cy="799" rx="11" ry="11" /><path fill="#000000" d="M 1617.02 794.875 Q 1617.17 794.656 1617.36 794.547 Q 1617.55 794.438 1617.77 794.438 Q 1618.14 794.438 1618.38 794.703 Q 1618.61 794.953 1618.61 795.563 L 1618.61 797.016 Q 1618.61 797.625 1618.38 797.891 Q 1618.14 798.156 1617.77 798.156 Q 1617.42 798.156 1617.22 797.953 Q 1617.02 797.766 1616.91 797.25 Q 1616.86 796.891 1616.67 796.703 Q 1616.34 796.328 1615.73 796.109 Q 1615.13 795.891 1614.5 795.891 Q 1613.73 795.891 1613.09 796.219 Q 1612.47 796.547 1611.97 797.297 Q 1611.48 798.047 1611.48 799.078 L 1611.48 800.172 Q 1611.48 801.406 1612.38 802.234 Q 1613.27 803.047 1614.86 803.047 Q 1615.8 803.047 1616.45 802.797 Q 1616.84 802.641 1617.27 802.203 Q 1617.53 801.938 1617.67 801.859 Q 1617.83 801.781 1618.03 801.781 Q 1618.36 801.781 1618.61 802.047 Q 1618.88 802.297 1618.88 802.641 Q 1618.88 802.984 1618.53 803.391 Q 1618.03 803.969 1617.23 804.297 Q 1616.16 804.75 1614.86 804.75 Q 1613.34 804.75 1612.14 804.125 Q 1611.16 803.625 1610.47 802.563 Q 1609.78 801.484 1609.78 800.203 L 1609.78 799.047 Q 1609.78 797.719 1610.39 796.578 Q 1611.02 795.422 1612.11 794.813 Q 1613.2 794.188 1614.44 794.188 Q 1615.17 794.188 1615.81 794.359 Q 1616.47 794.516 1617.02 794.875 Z" /><text font-family="sans-serif" font-size="14" fill="#000000" lengthAdjust="spacing" textLength="102" x="1634.75" y="804.7285">ShortCircuitTest</text><line style="stroke: #454645; stroke-width: 1;" x1="1525" y1="815" x2="1814" y2="815" /><ellipse style="stroke: #038048; stroke-width: 1;" fill="none" cx="1535" cy="829.305" rx="3" ry="3" /><text font-family="sans-serif" font-size="14" fill="#000000" lengthAdjust="spacing" textLength="209" x="1544" y="833.5332">energisedEndStep : integer [0..1]</text><ellipse style="stroke: #038048; stroke-width: 1;" fill="none" cx="1535" cy="846.914" rx="3" ry="3" /><text font-family="sans-serif" font-size="14" fill="#000000" lengthAdjust="spacing" textLength="207" x="1544" y="851.1426">groundedEndStep : integer [0..1]</text><ellipse style="stroke: #038048; stroke-width: 1;" fill="none" cx="1535" cy="864.523" rx="3" ry="3" /><text font-family="sans-serif" font-size="14" fill="#000000" lengthAdjust="spacing" textLength="236" x="1544" y="868.752">leakageImpedance : Impedance [0..1]</text><ellipse style="stroke: #038048; stroke-width: 1;" fill="none" cx="1535" cy="882.133" rx="3" ry="3" /><text font-family="sans-serif" font-size="14" fill="#000000" lengthAdjust="spacing" textLength="265" x="1544" y="886.3613">leakageImpedanceZero : Impedance [0..1]</text><ellipse style="stroke: #038048; stroke-width: 1;" fill="none" cx="1535" cy="899.742" rx="3" ry="3" /><text font-family="sans-serif" font-size="14" fill="#000000" lengthAdjust="spacing" textLength="173" x="1544" y="903.9707">loss : KiloActivePower [0..1]</text><ellipse style="stroke: #038048; stroke-width: 1;" fill="none" cx="1535" cy="917.352" rx="3" ry="3" /><text font-family="sans-serif" font-size="14" fill="#000000" lengthAdjust="spacing" textLength="202" x="1544" y="921.5801">lossZero : KiloActivePower [0..1]</text></g><!--class TransformerTankInfo--><g id="elem_TransformerTankInfo"><rect id="TransformerTankInfo" filter="url(&quot;#f1dm7mxgr3nhlj&quot;)" style="stroke: #454645; stroke-width: 1;" fill="#ffffe0" x="558" y="1389" width="165" height="40" rx="2.5" ry="2.5" codeline="194" /><ellipse style="stroke: #181818; stroke-width: 1;" fill="#add1b2" cx="573" cy="1405" rx="11" ry="11" /><path fill="#000000" d="M 575.766 1400.88 Q 575.922 1400.66 576.109 1400.55 Q 576.297 1400.44 576.516 1400.44 Q 576.891 1400.44 577.125 1400.7 Q 577.359 1400.95 577.359 1401.56 L 577.359 1403.02 Q 577.359 1403.63 577.125 1403.89 Q 576.891 1404.16 576.516 1404.16 Q 576.172 1404.16 575.969 1403.95 Q 575.766 1403.77 575.656 1403.25 Q 575.609 1402.89 575.422 1402.7 Q 575.094 1402.33 574.484 1402.11 Q 573.875 1401.89 573.25 1401.89 Q 572.484 1401.89 571.844 1402.22 Q 571.219 1402.55 570.719 1403.3 Q 570.234 1404.05 570.234 1405.08 L 570.234 1406.17 Q 570.234 1407.41 571.125 1408.23 Q 572.016 1409.05 573.609 1409.05 Q 574.547 1409.05 575.203 1408.8 Q 575.594 1408.64 576.016 1408.2 Q 576.281 1407.94 576.422 1407.86 Q 576.578 1407.78 576.781 1407.78 Q 577.109 1407.78 577.359 1408.05 Q 577.625 1408.3 577.625 1408.64 Q 577.625 1408.98 577.281 1409.39 Q 576.781 1409.97 575.984 1410.3 Q 574.906 1410.75 573.609 1410.75 Q 572.094 1410.75 570.891 1410.13 Q 569.906 1409.63 569.219 1408.56 Q 568.531 1407.48 568.531 1406.2 L 568.531 1405.05 Q 568.531 1403.72 569.141 1402.58 Q 569.766 1401.42 570.859 1400.81 Q 571.953 1400.19 573.188 1400.19 Q 573.922 1400.19 574.563 1400.36 Q 575.219 1400.52 575.766 1400.88 Z" /><text font-family="sans-serif" font-size="14" fill="#000000" lengthAdjust="spacing" textLength="133" x="587" y="1410.7285">TransformerTankInfo</text><line style="stroke: #454645; stroke-width: 1;" x1="559" y1="1421" x2="722" y2="1421" /></g><!--class TransformerTank--><g id="elem_TransformerTank"><rect id="TransformerTank" filter="url(&quot;#f1dm7mxgr3nhlj&quot;)" style="stroke: #454645; stroke-width: 1;" fill="#ffffe0" x="317.5" y="1125" width="142" height="50.7031" rx="2.5" ry="2.5" codeline="187" /><ellipse style="stroke: #181818; stroke-width: 1;" fill="#add1b2" cx="332.5" cy="1146.35" rx="11" ry="11" /><path fill="#000000" d="M 335.266 1142.23 Q 335.422 1142.01 335.609 1141.9 Q 335.797 1141.79 336.016 1141.79 Q 336.391 1141.79 336.625 1142.05 Q 336.859 1142.3 336.859 1142.91 L 336.859 1144.37 Q 336.859 1144.98 336.625 1145.24 Q 336.391 1145.51 336.016 1145.51 Q 335.672 1145.51 335.469 1145.3 Q 335.266 1145.12 335.156 1144.6 Q 335.109 1144.24 334.922 1144.05 Q 334.594 1143.68 333.984 1143.46 Q 333.375 1143.24 332.75 1143.24 Q 331.984 1143.24 331.344 1143.57 Q 330.719 1143.9 330.219 1144.65 Q 329.734 1145.4 329.734 1146.43 L 329.734 1147.52 Q 329.734 1148.76 330.625 1149.59 Q 331.516 1150.4 333.109 1150.4 Q 334.047 1150.4 334.703 1150.15 Q 335.094 1149.99 335.516 1149.55 Q 335.781 1149.29 335.922 1149.21 Q 336.078 1149.13 336.281 1149.13 Q 336.609 1149.13 336.859 1149.4 Q 337.125 1149.65 337.125 1149.99 Q 337.125 1150.34 336.781 1150.74 Q 336.281 1151.32 335.484 1151.65 Q 334.406 1152.1 333.109 1152.1 Q 331.594 1152.1 330.391 1151.48 Q 329.406 1150.98 328.719 1149.91 Q 328.031 1148.84 328.031 1147.55 L 328.031 1146.4 Q 328.031 1145.07 328.641 1143.93 Q 329.266 1142.77 330.359 1142.16 Q 331.453 1141.54 332.688 1141.54 Q 333.422 1141.54 334.063 1141.71 Q 334.719 1141.87 335.266 1142.23 Z" /><text font-family="sans-serif" font-size="12" font-style="italic" fill="#000000" lengthAdjust="spacing" textLength="76" x="363.5" y="1142.457">«Description»</text><text font-family="sans-serif" font-size="14" fill="#000000" lengthAdjust="spacing" textLength="110" x="346.5" y="1159.627">TransformerTank</text><line style="stroke: #454645; stroke-width: 1;" x1="318.5" y1="1167.7" x2="458.5" y2="1167.7" /></g><!--class WindingConnection--><g id="elem_WindingConnection"><rect id="WindingConnection" filter="url(&quot;#f1dm7mxgr3nhlj&quot;)" style="stroke: #454645; stroke-width: 1;" fill="#90ee90" x="91" y="257" width="155" height="189.063" rx="2.5" ry="2.5" codeline="208" /><ellipse style="stroke: #181818; stroke-width: 1;" fill="#eb937f" cx="106" cy="285.898" rx="11" ry="11" /><path fill="#000000" d="M 104.859 286.695 L 104.859 289.195 L 109.188 289.195 L 109.188 288.273 Q 109.188 287.664 109.422 287.398 Q 109.672 287.133 110.047 287.133 Q 110.422 287.133 110.656 287.398 Q 110.891 287.664 110.891 288.273 L 110.891 290.898 L 102.891 290.898 Q 102.266 290.898 102 290.664 Q 101.75 290.43 101.75 290.039 Q 101.75 289.664 102.016 289.43 Q 102.281 289.195 102.891 289.195 L 103.156 289.195 L 103.156 282.539 L 102.891 282.539 Q 102.266 282.539 102 282.305 Q 101.75 282.07 101.75 281.68 Q 101.75 281.305 102 281.07 Q 102.266 280.836 102.891 280.836 L 110.516 280.836 L 110.516 283.43 Q 110.516 284.039 110.281 284.305 Q 110.063 284.555 109.672 284.555 Q 109.297 284.555 109.063 284.305 Q 108.828 284.039 108.828 283.43 L 108.828 282.539 L 104.859 282.539 L 104.859 284.992 L 106.344 284.992 Q 106.344 284.336 106.469 284.148 Q 106.734 283.742 107.203 283.742 Q 107.578 283.742 107.813 284.008 Q 108.047 284.258 108.047 284.867 L 108.047 286.836 Q 108.047 287.383 107.922 287.57 Q 107.656 287.961 107.203 287.961 Q 106.734 287.961 106.469 287.555 Q 106.344 287.367 106.344 286.695 L 104.859 286.695 Z" /><text font-family="sans-serif" font-size="12" font-style="italic" fill="#000000" lengthAdjust="spacing" textLength="84" x="139.5" y="274.457">«enumeration»</text><text font-family="sans-serif" font-size="12" font-style="italic" fill="#000000" lengthAdjust="spacing" textLength="60" x="151.5" y="289.5508">«Attribute»</text><text font-family="sans-serif" font-size="14" fill="#000000" lengthAdjust="spacing" textLength="123" x="120" y="306.7207">WindingConnection</text><line style="stroke: #454645; stroke-width: 1;" x1="92" y1="314.797" x2="245" y2="314.797" /><text font-family="sans-serif" font-size="14" fill="#000000" lengthAdjust="spacing" textLength="9" x="97" y="333.3301">A</text><text font-family="sans-serif" font-size="14" fill="#000000" lengthAdjust="spacing" textLength="10" x="97" y="350.9395">D</text><text font-family="sans-serif" font-size="14" fill="#000000" lengthAdjust="spacing" textLength="3" x="97" y="368.5488">I</text><text font-family="sans-serif" font-size="14" fill="#000000" lengthAdjust="spacing" textLength="9" x="97" y="386.1582">Y</text><text font-family="sans-serif" font-size="14" fill="#000000" lengthAdjust="spacing" textLength="17" x="97" y="403.7676">Yn</text><text font-family="sans-serif" font-size="14" fill="#000000" lengthAdjust="spacing" textLength="8" x="97" y="421.377">Z</text><text font-family="sans-serif" font-size="14" fill="#000000" lengthAdjust="spacing" textLength="16" x="97" y="438.9863">Zn</text></g><!--reverse link IdentifiedObject to AssetInfo--><g id="link_IdentifiedObject_AssetInfo"><path id="IdentifiedObject-backto-AssetInfo" style="stroke: #454645; stroke-width: 1;" fill="none" d="M 783.5 407.07 C 783.5 463.32 783.5 551.13 783.5 594.36" codeline="103" /><polygon style="stroke: #454645; stroke-width: 1;" fill="none" points="783.5,389.07 777.5,407.07 789.5,407.07 783.5,389.07" /></g><!--reverse link AssetInfo to ConductingAssetInfo--><g id="link_AssetInfo_ConductingAssetInfo"><path id="AssetInfo-backto-ConductingAssetInfo" style="stroke: #454645; stroke-width: 1;" fill="none" d="M 803.803 650.23 C 828.393 692.3 878.06 777.27 906.92 826.64" codeline="110" /><polygon style="stroke: #454645; stroke-width: 1;" fill="none" points="794.72,634.69 798.623,653.258 808.983,647.202 794.72,634.69" /></g><!--reverse link PowerSystemResource to Equipment--><g id="link_PowerSystemResource_Equipment"><path id="PowerSystemResource-backto-Equipment" style="stroke: #454645; stroke-width: 1;" fill="none" d="M 483.395 651.446 C 465.795 696.296 428.71 790.78 411.07 835.71" codeline="116" /><polygon style="stroke: #454645; stroke-width: 1;" fill="none" points="489.97,634.69 477.809,649.254 488.98,653.638 489.97,634.69" /></g><!--reverse link Identity to IdentifiedObject--><g id="link_Identity_IdentifiedObject"><path id="Identity-backto-IdentifiedObject" style="stroke: #454645; stroke-width: 1;" fill="none" d="M 783.5 113.67 C 783.5 165.12 783.5 256.26 783.5 313.58" codeline="124" /><polygon style="stroke: #454645; stroke-width: 1;" fill="none" points="783.5,95.67 777.5,113.67 789.5,113.67 783.5,95.67" /></g><!--reverse link TransformerTest to NoLoadTest--><g id="link_TransformerTest_NoLoadTest"><path id="TransformerTest-backto-NoLoadTest" style="stroke: #454645; stroke-width: 1;" fill="none" d="M 1274.5 670.14 C 1274.5 707.22 1274.5 747.29 1274.5 791.81" codeline="141" /><polygon style="stroke: #454645; stroke-width: 1;" fill="none" points="1274.5,652.14 1268.5,670.14 1280.5,670.14 1274.5,652.14" /></g><!--link NoLoadTest to TransformerEndInfo--><g id="link_NoLoadTest_TransformerEndInfo"><path id="NoLoadTest-to-TransformerEndInfo" style="stroke: #454645; stroke-width: 1;" fill="none" d="M 1274.5 920.11 C 1274.5 960.92 1274.5 1008.66 1274.5 1053.87" codeline="142" /><polygon style="stroke: #454645; stroke-width: 1;" fill="#454645" points="1274.5,1059.87 1278.5,1050.87 1274.5,1054.87 1270.5,1050.87 1274.5,1059.87" /><text font-family="sans-serif" font-size="13" fill="#000000" lengthAdjust="spacing" textLength="189" x="1075.1641" y="941.5088">+EnergisedEndNoLoadTests 0..*</text><text font-family="sans-serif" font-size="13" fill="#000000" lengthAdjust="spacing" textLength="100" x="1170.3594" y="1049.217">+EnergisedEnd 1</text></g><!--reverse link IdentifiedObject to PowerSystemResource--><g id="link_IdentifiedObject_PowerSystemResource"><path id="IdentifiedObject-backto-PowerSystemResource" style="stroke: #454645; stroke-width: 1;" fill="none" d="M 730.133 401.202 C 668.483 457.452 565.85 551.13 518.47 594.36" codeline="155" /><polygon style="stroke: #454645; stroke-width: 1;" fill="none" points="743.43,389.07 726.089,396.77 734.177,405.635 743.43,389.07" /></g><!--reverse link TransformerTest to ShortCircuitTest--><g id="link_TransformerTest_ShortCircuitTest"><path id="TransformerTest-backto-ShortCircuitTest" style="stroke: #454645; stroke-width: 1;" fill="none" d="M 1350.31 661.471 C 1407.47 696.121 1479.48 739.78 1550.61 782.91" codeline="167" /><polygon style="stroke: #454645; stroke-width: 1;" fill="none" points="1334.92,652.14 1347.2,666.602 1353.42,656.34 1334.92,652.14" /></g><!--link ShortCircuitTest to TransformerEndInfo--><g id="link_ShortCircuitTest_TransformerEndInfo"><path id="ShortCircuitTest-to-TransformerEndInfo" style="stroke: #454645; stroke-width: 1;" fill="none" d="M 1532.71 929.12 C 1472.84 968.62 1410.1 1014.14 1358.33 1056.1" codeline="168" /><polygon style="stroke: #454645; stroke-width: 1;" fill="#454645" points="1353.67,1059.88 1363.18,1057.32 1357.55,1056.73 1358.14,1051.11 1353.67,1059.88" /><text font-family="sans-serif" font-size="13" fill="#000000" lengthAdjust="spacing" textLength="213" x="1303.364" y="948.0887">+EnergisedEndShortCircuitTests 0..*</text><text font-family="sans-serif" font-size="13" fill="#000000" lengthAdjust="spacing" textLength="100" x="1364.3669" y="1049.2279">+EnergisedEnd 1</text></g><!--link ShortCircuitTest to TransformerEndInfo--><g id="link_ShortCircuitTest_TransformerEndInfo"><path id="ShortCircuitTest-to-TransformerEndInfo-1" style="stroke: #454645; stroke-width: 1;" fill="none" d="M 1611.3 929.3 C 1560.44 972.19 1492.31 1023.26 1426.52 1067.24" codeline="169" /><polygon style="stroke: #454645; stroke-width: 1;" fill="#454645" points="1421.53,1070.58 1431.23,1068.9 1425.69,1067.8 1426.79,1062.25 1421.53,1070.58" /><text font-family="sans-serif" font-size="13" fill="#000000" lengthAdjust="spacing" textLength="211" x="1615.5127" y="950.0669">+GroundedEndShortCircuitTests 0..*</text><text font-family="sans-serif" font-size="13" fill="#000000" lengthAdjust="spacing" textLength="118" x="1429.578" y="1081.2751">+GroundedEnds 1..*</text></g><!--reverse link ConductingAssetInfo to TransformerEndInfo--><g id="link_ConductingAssetInfo_TransformerEndInfo"><path id="ConductingAssetInfo-backto-TransformerEndInfo" style="stroke: #454645; stroke-width: 1;" fill="none" d="M 970.988 896.573 C 1018.86 936.463 1094.96 999.88 1166.9 1059.83" codeline="183" /><polygon style="stroke: #454645; stroke-width: 1;" fill="none" points="957.16,885.05 967.147,901.182 974.829,891.964 957.16,885.05" /></g><!--link TransformerEndInfo to TransformerTankInfo--><g id="link_TransformerEndInfo_TransformerTankInfo"><path id="TransformerEndInfo-to-TransformerTankInfo" style="stroke: #454645; stroke-width: 1;" fill="none" d="M 1127.45 1210.99 C 985.71 1268.34 785.152 1349.48 693.292 1386.64" codeline="184" /><polygon style="stroke: #454645; stroke-width: 1;" fill="#454645" points="687.73,1388.89 697.573,1389.22 692.365,1387.02 694.573,1381.81 687.73,1388.89" /><text font-family="sans-serif" font-size="13" fill="#000000" lengthAdjust="spacing" textLength="158" x="882.5" y="1320.4951">«ShadowExtension,gmdm»</text><text font-family="sans-serif" font-size="13" fill="#000000" lengthAdjust="spacing" textLength="150" x="969.4701" y="1210.38">+TransformerEndInfos 0..*</text><text font-family="sans-serif" font-size="13" fill="#000000" lengthAdjust="spacing" textLength="150" x="529.5726" y="1378.1794">+TransformerTankInfo 0..1</text></g><!--reverse link Equipment to TransformerTank--><g id="link_Equipment_TransformerTank"><path id="Equipment-backto-TransformerTank" style="stroke: #454645; stroke-width: 1;" fill="none" d="M 401.597 894.166 C 398.967 945.386 392.71 1067.33 389.78 1124.58" codeline="190" /><polygon style="stroke: #454645; stroke-width: 1;" fill="none" points="402.52,876.19 395.605,893.859 407.589,894.474 402.52,876.19" /></g><!--link TransformerTank to TransformerTankInfo--><g id="link_TransformerTank_TransformerTankInfo"><path id="TransformerTank-to-TransformerTankInfo" style="stroke: #454645; stroke-width: 1;" fill="none" d="M 380.44 1176.24 C 370.3 1212.42 357.79 1280.22 389.5 1324 C 427.71 1376.75 494.609 1396.07 552.019 1403.49" codeline="191" /><polygon style="stroke: #454645; stroke-width: 1;" fill="#454645" points="557.97,1404.26 549.557,1399.14 553.011,1403.62 548.531,1407.07 557.97,1404.26" /><text font-family="sans-serif" font-size="13" fill="#000000" lengthAdjust="spacing" textLength="158" x="390.5" y="1320.4951">«ShadowExtension,gmdm»</text><text font-family="sans-serif" font-size="13" fill="#000000" lengthAdjust="spacing" textLength="135" x="228.9113" y="1197.1866">+TransformerTanks 0..*</text><text font-family="sans-serif" font-size="13" fill="#000000" lengthAdjust="spacing" textLength="150" x="399.8474" y="1401.1073">+TransformerTankInfo 0..1</text></g><!--reverse link AssetInfo to TransformerTankInfo--><g id="link_AssetInfo_TransformerTankInfo"><path id="AssetInfo-backto-TransformerTankInfo" style="stroke: #454645; stroke-width: 1;" fill="none" d="M 776.843 652.414 C 757.243 761.024 663.63 1279.82 643.98 1388.7" codeline="197" /><polygon style="stroke: #454645; stroke-width: 1;" fill="none" points="780.04,634.7 770.939,651.348 782.748,653.479 780.04,634.7" /></g><!--reverse link IdentifiedObject to TransformerTest--><g id="link_IdentifiedObject_TransformerTest"><path id="IdentifiedObject-backto-TransformerTest" style="stroke: #454645; stroke-width: 1;" fill="none" d="M 868.184 397.518 C 961.744 447.248 1112.26 527.26 1205.78 576.97" codeline="205" /><polygon style="stroke: #454645; stroke-width: 1;" fill="none" points="852.29,389.07 865.368,402.816 871,392.22 852.29,389.07" /></g><!--SRC=[lLXjRzis4FwkNq4a7xgjI-AqQO4QHW3NyTQWRHOqwOQrs0TQEjki9L8ZgRfkr_tstL6sNYZAJJ1i2U1OlETuTm-FTwTObJEhs4nPgpAM20sn5Kf6Iv40Woot6vQ1NQh4HD43zW8qi3KmddmeZ6Ls2MofjFYifEKfCpcFXLomkT9i1jQ2fYKhKAH19g19-1qfNQTSshUlNx44vhn8BHE6_Vrey7raLaBcNFECIPM0WPoTFXg43Ny4RKNyxyq-RfdLNAwSsSU3gB7ydCUhXLQ5J2OgHJk7FxcV1i8iUQBMpW-U6cX8tfHgMg9ZJvfxAetERVSxUtBszAmf7Mkjrdt2dv3mhMpWVfg-nYatXds967l09ah66YoKYs2OiPiKA7uXXJje5evjEa19rmnZOskrc1KMGi8R91-KtUH1wGlW67184g9Yjtgx5F5A0ePqYcikgl7CMCrZUu-eHYE-LJe_PuSNZ-ct6M5RlYVQ7c0WyXwanq8Fgi586z77JWjLCJMLHGQQ4oTtOmbg1RBsR32TFXkqYV8WUxdgmmRfwWFxUTEFRB7cWVg9QmChxYQNho-uvUJatRXhA911l4JF9nTjxZp8Nkxwi47k-i2TREi3jgZpGFtKjO4rTIhBYPXxNT2TKYzt3Vb-uaB0C6iXP9Uo4AhDLmEnXwmQLJ5rhKM6Z7o4Ur5LQP71wTFfKsn5BQvQWBraXP51jiBG3brXM8kl5gIVi2QiBcdO6BMv5rr0AcLQJGQJvruvsmdt5x8EAbp2Eh0EFLr8kshjn7lgrHPo6dqD3Y1M5n2L4rohAvZAuvrmjrD34hLcC9mSljozFny_sL9x8pu3EptRFY4mJOBZn5SSxSP9mdXfogerrubnursHvpWlfJ37Bb_EJchk18dW2tGkSXhSi36cWRsYXyDKB9Ps0scgrcWExvQQYnI69OHMhdW6D2xYsjBQV7XoibwlZukOYs9nhFJYP94bsGabbZsCS7PqRj7WwtQub7F5X5pYH6aDcsiSc2yJa5RC1II_p3xWw1pnrcZIq6iVnHSCFVALsUYlewDQXUpY_9OKE97BHPy7DTmp7LBrdK1A7cBZW-HNbLg-03Paks_l1yV7ft-GcxMwyo-mBtaw_RCGUOO1UVvTgpNecmrcMFO6Z2fq3BwdjMg0f81-wKUbHTOxL8QEoMvyonsr447u7X9haLDnGNvGI7TiIm_99IPLHr0TBxv0ENSxcL9vtUSMQeRS4RkDTCDeQH6tl5Al54zkmVWKtEARZS5N99nqI1gLbXfmjjqVyAujX85aAllJmW4_nOBIO59eJOStPDTO8-XRF-WTQ1K6fWhT6RAN8bNZc6g-EtWViTNlGI45NfWbztMKKIFWWuVJHgYrm33SxOS3TdHqxc7OwK6JHrofihyU8TdraXkOOFknBuLC8feklJL_WXsDgfQ3nroUWy9Qf-cBGVPIS1lGerrgs3vz9SkX-t6_6XNQuSxLAdIzqQkRfT9s8dHS27ldPEmeXL8IsswE6I2aXKKxFygM_mrG2do5UNoPvP1m6LDgrz_tuBQ95yR-XwdhSn9rI6gdg2- -Tp87zl-vGUpUxHj0cWP84BuktLKlGK9DfaoIWEekJM8bPVdlAtV9Xkmt_4ErfrflLIRSOG4otjmWSfpZn8FvtJav70AkYcpcYcsLJbkPaAP8tHL-6wwGELtJCLtVIQhYLJWZQMUyEi9OFwzSPzxhdQ7Zk0MTzQ8mhqA3WCkjmDa4s3rus5ri7tipSRbSEIsotZhzIZB4sdBZPjNf9mlI87q_qjXrVkvb1cbuQL7t_4uoEFHeT54twxAK8W7rVE67JKgHlqadeFyjshtZNJ3YAl-xSre0wPli5kPlzGfVEpIWp33fonpivEGsRR5PvDJy2atrzxRnzBuvElcznkyQNj_jtFQozNQBm1swxvW-wFyFx98-VdSVz6x9thaFYLx-0m00]--></g><g class="svg-pan-zoom-control" id="svg-pan-zoom-controls" transform="translate(1830 661) scale(0.75)"><g class="svg-pan-zoom-control" id="svg-pan-zoom-zoom-in" transform="translate(30.5 5) scale(0.015)"><rect class="svg-pan-zoom-control-background" x="0" y="0" width="1500" height="1400" /><path class="svg-pan-zoom-control-element" d="M 1280 576 v 128 q 0 26 -19 45 t -45 19 h -320 v 320 q 0 26 -19 45 t -45 19 h -128 q -26 0 -45 -19 t -19 -45 v -320 h -320 q -26 0 -45 -19 t -19 -45 v -128 q 0 -26 19 -45 t 45 -19 h 320 v -320 q 0 -26 19 -45 t 45 -19 h 128 q 26 0 45 19 t 19 45 v 320 h 320 q 26 0 45 19 t 19 45 Z M 1536 1120 v -960 q 0 -119 -84.5 -203.5 t -203.5 -84.5 h -960 q -119 0 -203.5 84.5 t -84.5 203.5 v 960 q 0 119 84.5 203.5 t 203.5 84.5 h 960 q 119 0 203.5 -84.5 t 84.5 -203.5 Z" /></g><g class="svg-pan-zoom-control" id="svg-pan-zoom-reset-pan-zoom" transform="translate(5 35) scale(0.4)"><rect class="svg-pan-zoom-control-background" x="2" y="2" width="182" height="58" /><path class="svg-pan-zoom-control-element" d="M 33.051 20.632 c -0.742 -0.406 -1.854 -0.609 -3.338 -0.609 h -7.969 v 9.281 h 7.769 c 1.543 0 2.701 -0.188 3.473 -0.562 c 1.365 -0.656 2.048 -1.953 2.048 -3.891 C 35.032 22.757 34.372 21.351 33.051 20.632 Z" /><path class="svg-pan-zoom-control-element" d="M 170.231 0.5 H 15.847 C 7.102 0.5 0.5 5.708 0.5 11.84 v 38.861 C 0.5 56.833 7.102 61.5 15.847 61.5 h 154.384 c 8.745 0 15.269 -4.667 15.269 -10.798 V 11.84 C 185.5 5.708 178.976 0.5 170.231 0.5 Z M 42.837 48.569 h -7.969 c -0.219 -0.766 -0.375 -1.383 -0.469 -1.852 c -0.188 -0.969 -0.289 -1.961 -0.305 -2.977 l -0.047 -3.211 c -0.03 -2.203 -0.41 -3.672 -1.142 -4.406 c -0.732 -0.734 -2.103 -1.102 -4.113 -1.102 h -7.05 v 13.547 h -7.055 V 14.022 h 16.524 c 2.361 0.047 4.178 0.344 5.45 0.891 c 1.272 0.547 2.351 1.352 3.234 2.414 c 0.731 0.875 1.31 1.844 1.737 2.906 s 0.64 2.273 0.64 3.633 c 0 1.641 -0.414 3.254 -1.242 4.84 s -2.195 2.707 -4.102 3.363 c 1.594 0.641 2.723 1.551 3.387 2.73 s 0.996 2.98 0.996 5.402 v 2.32 c 0 1.578 0.063 2.648 0.19 3.211 c 0.19 0.891 0.635 1.547 1.333 1.969 V 48.569 Z M 75.579 48.569 h -26.18 V 14.022 h 25.336 v 6.117 H 56.454 v 7.336 h 16.781 v 6 H 56.454 v 8.883 h 19.125 V 48.569 Z M 104.497 46.331 c -2.44 2.086 -5.887 3.129 -10.34 3.129 c -4.548 0 -8.125 -1.027 -10.731 -3.082 s -3.909 -4.879 -3.909 -8.473 h 6.891 c 0.224 1.578 0.662 2.758 1.316 3.539 c 1.196 1.422 3.246 2.133 6.15 2.133 c 1.739 0 3.151 -0.188 4.236 -0.562 c 2.058 -0.719 3.087 -2.055 3.087 -4.008 c 0 -1.141 -0.504 -2.023 -1.512 -2.648 c -1.008 -0.609 -2.607 -1.148 -4.796 -1.617 l -3.74 -0.82 c -3.676 -0.812 -6.201 -1.695 -7.576 -2.648 c -2.328 -1.594 -3.492 -4.086 -3.492 -7.477 c 0 -3.094 1.139 -5.664 3.417 -7.711 s 5.623 -3.07 10.036 -3.07 c 3.685 0 6.829 0.965 9.431 2.895 c 2.602 1.93 3.966 4.73 4.093 8.402 h -6.938 c -0.128 -2.078 -1.057 -3.555 -2.787 -4.43 c -1.154 -0.578 -2.587 -0.867 -4.301 -0.867 c -1.907 0 -3.428 0.375 -4.565 1.125 c -1.138 0.75 -1.706 1.797 -1.706 3.141 c 0 1.234 0.561 2.156 1.682 2.766 c 0.721 0.406 2.25 0.883 4.589 1.43 l 6.063 1.43 c 2.657 0.625 4.648 1.461 5.975 2.508 c 2.059 1.625 3.089 3.977 3.089 7.055 C 108.157 41.624 106.937 44.245 104.497 46.331 Z M 139.61 48.569 h -26.18 V 14.022 h 25.336 v 6.117 h -18.281 v 7.336 h 16.781 v 6 h -16.781 v 8.883 h 19.125 V 48.569 Z M 170.337 20.14 h -10.336 v 28.43 h -7.266 V 20.14 h -10.383 v -6.117 h 27.984 V 20.14 Z" /></g><g class="svg-pan-zoom-control" id="svg-pan-zoom-zoom-out" transform="translate(30.5 70) scale(0.015)"><rect class="svg-pan-zoom-control-background" x="0" y="0" width="1500" height="1400" /><path class="svg-pan-zoom-control-element" d="M 1280 576 v 128 q 0 26 -19 45 t -45 19 h -896 q -26 0 -45 -19 t -19 -45 v -128 q 0 -26 19 -45 t 45 -19 h 896 q 26 0 45 19 t 19 45 Z M 1536 1120 v -960 q 0 -119 -84.5 -203.5 t -203.5 -84.5 h -960 q -119 0 -203.5 84.5 t -84.5 203.5 v 960 q 0 119 84.5 203.5 t 203.5 84.5 h 960 q 119 0 203.5 -84.5 t 84.5 -203.5 Z" /></g></g></svg>